<?xml version="1.0" encoding="utf-8"?>
<!-- Generator: Adobe Illustrator 18.0.0, SVG Export Plug-In . SVG Version: 6.00 Build 0)  -->
<!DOCTYPE svg PUBLIC "-//W3C//DTD SVG 1.1//EN" "http://www.w3.org/Graphics/SVG/1.1/DTD/svg11.dtd">
<svg version="1.1" id="Layer_1" xmlns="http://www.w3.org/2000/svg" xmlns:xlink="http://www.w3.org/1999/xlink" x="0px" y="0px"
	 width="960px" height="560px" viewBox="0 0 960 560" enable-background="new 0 0 960 560" xml:space="preserve">
<g>
	<g>
		<path fill="#010101" d="M756.6,225.8c-0.6,9.5-1.9,18.9-4.8,28c-4.6,14.3-9.6,28.7-18,41.3c-7.1,10.7-16.4,19.1-27.8,25.3
			c-7.2,3.9-14.5,7.5-22.7,8.7c-1.9,0.3-3.7,0.3-5.6,0.2c-1.5-0.1-2.6,0.3-3.7,1.5c-4.3,4.5-4.2,4.3,0.5,8.7
			c9.2,8.8,13.2,19.8,12.5,32.5c-0.2,3.3-1.4,4-3.9,2.5c-6.5-4.1-14.1-5.7-20.9-9c-3.7-1.8-7-4.1-10.9-6.2c0.4,3,0.4,5.7,0.2,8.4
			c-0.3,3.8-1,4.3-4.9,3.6c-6.5-1.2-10.9-5.1-14.1-10.5c-1-1.7-1.8-2.2-3.8-1.6c-9.8,2.9-19.7,5.7-30,8.6c3.4,2.6,6.1,5.5,9.2,7.8
			c4.1,3.1,7.3,6.9,11,10.4c9.2,8.5,20,14.4,31.3,19.5c1.5,0.7,3.1,1.2,4.6,1.9c3.6,1.7,7.2,2.5,11,0.4c1.4-0.8,3.1-1.1,4.7-1.4
			c7.2-1.5,12.7,2.5,13.5,9.8c0.9,8.5-0.2,16.7-5.3,23.9c-0.4,0.6-0.8,1.3-1.1,2c-8.1,17.2-21.1,27.8-40.1,30.8
			c-0.6,0.1-1.3,0-1.7,0.7c-2.4,0-4.9,0-7.3,0c-0.6-0.9-1.6-0.5-2.4-0.6c-4.7-1-9.7-1.8-13.2-4.9c-5.8-5-12.5-8.2-18.8-12.3
			c-7.8-5-15.6-10.2-22.2-16.5c-7.8-7.4-15.9-14.4-23.1-22.5c-2.1,5.2-2.9,10.6-4.9,15.6c-4.8,11.8-12.2,22-21.4,30.6
			c-4.8,4.5-10.3,8.3-16.9,10c-4.3,0-8.6,0-12.8,0.1c-15.2-1.8-28.2-8.4-39.1-19c-5.3-5.1-10.7-10.2-13.9-17
			c-0.5-1.1-1.3-1.4-2.4-1.2c-8.2,1-14.9-2-21.4-6.8c-8.1-6-12.7-14.2-16.2-23.2c-0.7-1.9-1.6-2.9-3.8-2.9c-1.5,0-3.1-0.4-4.5-0.9
			c-3.5-1.1-6.2-1.1-9.7,1.6c-5.5,4.3-12.7,5.4-19.5,6.7c-9.3,1.9-18.3,0.8-26.9-2.9c-1.8-0.8-2.3,0.2-3.3,1.2
			c-5.6,6.1-12.1,10.6-20.4,11.9c-3.9,0.6-7.5,0.2-11.2-1.7c-2.9-1.5-6.2-1.7-9.2-3.4c-11.6-6.6-15.3-14.6-12.9-27.6
			c1.1-6.1,3.2-11.9,5.7-17.6c3.8-8.6,10.3-14.4,18.9-17.9c1.4-0.6,1.2-1.2,1.3-2.1c0.4-5.2,0.6-10.3,2.6-15.5
			c-3.9,0.1-7.4-0.1-10.9-1.2c-2.3-0.7-4-2.2-5.9-3.6c-0.9-0.7-0.8-1.4,0-2.2c1.6-1.5,3.1-3.1,5.2-4c5.4-2.2,10.5-5.1,16.7-6.5
			c-4.7-4.1-9.2-7.8-11.7-13.1c-2.3-4.9-6.4-7.9-10.5-11.1c-2.9-2.2-5.6-4.8-7.9-7.6c-10.4-12.9-19.6-26.4-26.1-41.8
			c-3.6-8.5-6.4-17.3-9.6-25.9c-0.4-1.1-0.2-2.9-2.5-1.9c-11.9,5.4-24.4,4.4-36.8,2.8c-7.3-0.9-14.8-0.6-22-2.9
			c-5.3-1.7-5.5-1.8-4.9-7.4c0.6-5.2,2-10,4.4-14.7c1.3-2.7,2-5.6,3.2-8.4c3.5-8.6,8.5-16.1,15.1-22.6c3.7-3.7,4.1-6.1,0-12.5
			c-3.9-6-6.5-12.5-7.6-19.5c-2.5-15.3-5.6-30.5-5.2-46c0.1-4.2,0.1-4.1,4.2-3.5c15.3,2.3,29.7,7.4,43.9,13.3
			c5.5,2.3,10.2,6.1,15.4,9c2.5,1.4,5,2.8,6.8,5.1c1,1.2,2.1,0.7,3.3,0.2c4.5-1.8,9-3.6,13.6-5.3c11.4-4,23-5.1,34.9-3
			c0.5,0.1,1.1,0.2,1.6,0.4c10.2,3.6,9.5,4.5,6.6,13.6c-2.7,8.3-5,16.7-8.9,24.6c-4.4,8.9-9.1,17.6-14.4,26c-1.4,2.2-1.7,4-0.4,6.6
			c5.6,11.2,10.2,22.8,10.8,35.6c0,0.9,0.2,1.8,0.2,2.6c0.1,5-1.1,6.2-6.2,6.2c-7.4,0-14.7-0.4-22-2.2c1.8,13,37,59.5,47.6,62.8
			c0.2-3.4,0.4-6.8,0.5-10.2c0.1-3.5,1.3-6.7,2.4-9.9c0.8-2.4,2.5-2.7,4.3-1.1c2.3,2.1,4.6,4.1,6.3,6.8c3.4,5.4,6.6,10.8,8.8,16.9
			c0.5-0.3,0.8-0.4,1-0.6c3.3-4.1,3.4-4.1,0.6-8.7c-10.1-16.3-14.9-34-15-53.2c-0.1-16.5,0.9-32.8,6-48.5
			c4.6-14.2,9.8-28.3,16.1-41.9c5.3-11.5,11.7-22.5,19.4-32.5c6.2-8.1,14-14.6,24-17.9c1.9-0.6,3.9-1.3,5.4-2.8c5.1,0,10.2,0,15.3,0
			c4.1,1.4,8.2,2.8,12.3,4.4c12,4.5,21.6,12.5,31,21c8.7,7.9,15,17.4,20.4,27.6c0.2,0.3,0.2,0.6,0.3,0.9c2.1,5.2,2.1,5.2,7.1,2.9
			c16.8-7.5,34.4-10.9,52.7-11.3c12.1-0.2,24.3-0.2,36.3-3c8.4-2,16.3-5.2,24-9.2c7.6-4,14.3-9.1,21.1-14.1c3.5-2.6,6.2-6.3,8.7-9.9
			c1.3-1.9,2.4-2.2,4.2-0.6c4,3.3,7.3,6.9,9.2,12.1c3.7,10,6.2,20,4,31.7c3.4-2.3,5-4.9,6.8-7.3c2.5-3.5,4.4-3.7,7.4-0.6
			c2.1,2.1,3.2,4.9,3.5,7.7c1.7,15,0.9,29.8-5.7,43.8c-1.9,4.1-5.7,6.6-8.1,10.2c-0.7,1-2.5,2-1.4,3.2c1.3,1.4,3.1,3,4.9,3.1
			c1.1,0.1,2.4-2.3,3.3-3.9c3.6-6.5,7.5-12.8,12.7-18.2c4.6-4.7,9.4-9.3,15.2-12.6c6.8-3.9,14.1-2.8,21.4-1.9
			c7.1,0.8,13.7,3.4,20.2,6.1c4.6,1.9,7.8,6,11.2,9.7c10,10.9,11.2,24.4,12.1,38.2c0.1,1-0.6,2.3,0.8,2.9c0,4.2,0,8.4,0,12.6
			C755.7,221.3,756.7,223.6,756.6,225.8z M532.6,384c1.4,2.6,4.9,3.4,8.2,1.9c9.2-4.2,17.5-9.8,26.2-14.8c0.5-0.3,1.2-0.7,0.8-1.7
			c-2.2,0-4.4,0-6.6,0c-9.2-1.1-18.5-1.5-27.8-3.1c-16.5-2.8-32-7.6-45.5-17.8c-0.5-0.4-1.2-1.1-2.2-0.4c1.8,2.3,3.6,4.5,5.4,6.7
			c4.9,6.2,10.3,12,15.6,17.9c2.1,2.3,4.1,4,7.1,4.3c4.1,0.5,8.3,0.9,12.5,1.1C531.5,378.2,532.5,379,532.6,384z M620.3,415.8
			c-6.7,6.9-13.1,14.1-17,22.9c-2.1,4.8-3.4,10-3,15.5c0.1,0.9-0.2,2.1,0.8,2.4c4.5,1.2,7.1,4.9,10.5,7.5c1.7,1.3,2.4,1.8,2.8-0.9
			c1.4-9.3,5.7-17.4,10.8-25c2.5-3.8,6-6.9,9.1-10.4c7.3-5.5,13.9-12,22.6-16.3c-6.2-2.8-12.1-5.5-18-8.2c-0.5-0.2-1.4-0.1-1.9,0.2
			C631.2,407.4,625,410.7,620.3,415.8z M446.2,406.5c-7.9,14.1-6.5,35.4,10.3,45.6c-2.1-5-2.6-9.9-3.5-14.7
			c-1.1-6.3,2-11.7,3.2-17.6c2.8-10.7,8.7-19.3,17.6-26c2-1.5,4.2-3.1,6.5-3c4.8,0.2,8.6-2.3,12.9-3.7c4.3-1.4,8.6-2.6,13-3.8
			c1.6-0.5,4.3-0.1,4.7-1.4c0.5-1.5-1.9-2.7-3.1-3.9c-1.4-1.3-1.8-3.4-4.5-3.5c-7.5-0.2-14.8,0.9-21.8,3.2
			c-12,3.9-21.5,11.4-29.4,21C449.8,401.1,446.9,403.1,446.2,406.5z M695.3,251.1c-0.4,0.7-0.5,1.2-0.3,2.1
			c1.1,5.2,1.5,10.6,2.8,15.8c0.9,3.7-0.1,7.5-1,11.3c-2.1,9.1-3.4,18.3-7.5,26.8c-0.2,0.3-0.5,0.8,0.4,1.2c3.8-3.1,8.7-5,11.9-8.9
			c2.1-2.4,4.4-3.4,7.4-3.6c5.7-0.3,11.5-0.6,16.9-2.9c2.1-0.9,2.5-1.8,1.1-3.7c-2.6-3.3-5.6-6-9.1-8.2c-1.8-1.2-2.2-2.4-1.3-4.4
			c1.2-2.4,2.2-4.9,3-7.3c5.4-15.2,9.4-30.6,10.1-46.8c1.1-5.2,0.9-10.5,0.7-15.8c0-1.7-0.6-2.6-2.4-1.4
			c-5.1,3.6-10.3,7.1-15.4,10.8c-5.9,4.3-11.1,9.4-16.4,14.4c-1.9,1.8-4.6,3.6-4.2,6.4C692.9,241.7,694.3,246.3,695.3,251.1z
			 M636.2,430.5c-10.3,9.5-16.7,21.2-19.1,35c-0.3,1.5,0.1,2.3,1.7,3c7.5,3.4,14.9,3,22.7,1.1c13.3-3.3,23.2-10.9,29.9-22.7
			c2.8-5,5.2-10.2,7.6-15.4c2.4-5.1,2.9-10.2,1.9-15.7c-0.9-6.2-6.4-8.8-13-6.2c-0.8,0.3-1.9,0.3-2,1.4c0,0.9,0.2,1.8,1.2,2.5
			c3.6,2.3,5.6,5.8,7.2,9.6c0.8,5.3,1.3,10.6-2.9,14.9c-0.5,0.5-0.9,1.5-1.8,1c-1.3-0.7-0.1-1.5,0.2-2.2c1.7-3.7,3.3-7.5,1.9-11.7
			c-1.5-9.7-9.9-13.7-18.5-8.7c-4.7,2.7-8.1,6.7-10.9,11.2c-0.7,1.1-1.5,2.2-2.5,1.4C637.5,427.5,637.2,429.6,636.2,430.5z
			 M445.5,401.2c1.9-2.7,4.2-5,6.5-7.4c9.4-9.9,20.3-17.2,33.8-20.2c4.9-1.1,9.8-1.9,14.9-2.4c-0.3-0.6-0.4-0.9-0.6-1.2
			c-6.8-8.4-14-16.4-21.4-24.2c-1.4-1.4-3.4-2.9-5.8-0.8c-2.7,2.4-6.2,3.8-9.2,5.7c-5.8,3.7-12.2,6.2-18.7,8.3
			c-1.4,0.4-2.9,0.8-4-0.5c-1-1.2-0.4-2.6,0.2-3.7c2.4-4.4,5-8.8,8.8-12.3c2.1-2,4-4.3,5.7-7.7c-11.5,2.7-22.4,3-33.5,2
			c-4.1-0.7-8.2-1.5-12.3-2.2c-1.6-0.3-1.5,0.9-1.5,1.9c-0.1,3.4-0.1,6.8,0.9,10.2c1.8,6.1,3.5,12.2,5.8,18.1
			c4.2,10.7,7.6,21.7,11.2,32.6c0.6,1.7,1.3,2.8,3.4,2.5c-2.1,2.7,4.2,21.7,9.3,28.5C437.9,418.2,440.1,409.3,445.5,401.2z
			 M302.6,283.6c7.7,3,16,3.7,24,5.7c1.6,0.4,1.9,0,1.7-1.6c-0.7-3.9-1.2-7.1-5.4-9.7c-7.4-4.5-13-11.4-18.6-18
			c-5.3-6.2-10.5-12.6-14.9-19.3c-7.8-11.8-13.6-24.9-20.1-37.4c-7.2-13.9-10.5-29.3-16.4-43.8c-1.1-2.6-2.4-4.1-5.3-3.3
			c-3.3,0.2-5.4,2.5-6.6,6.3c-1.4,4.4-1.4,9-0.5,13.3c2.8,13.3,5,26.7,8.2,39.8c2.3,9.6,6.8,18.3,10.2,27.5
			c2.9,8,6.9,15.6,11.4,22.7c3.9,6.3,8.8,12.1,13.6,17.8c2.9,3.4,6.4,6.3,9.7,9.4c0.5,0.5,1.1,1.3,2,0.9c0.9-0.4,0.5-1.4,0.5-2.1
			c0.1-0.4,0-0.9,0-1.3C296,282.6,295.4,283.7,302.6,283.6z M369.1,371.3c-0.1,1.9,0.3,3.7,0.8,5.6c1.5,5.8,4.1,11.2,6.7,16.5
			c0.7,1.4,1.4,2.3,2.9,2.9c5.2,2.1,10.8,3.3,16.3,3.8c9.3,0.9,18.7,2,28.4,0.2c-3.1-8.8-6.1-17.6-9.2-26.3
			c-3.5-6.9-5-14.5-7.3-21.9c-1.7-5.6-3-11.4-1.8-17.3c0.3-1.4-0.7-1.4-1.5-1.7c-2.8-0.8-5.5-1.6-8.3-2.3c-3.9-1-7.7-2.2-10.3-5.5
			c-1.1-1.3-1-2.3,0.1-3.7c4.4-5.7,11.5-7.1,17.1-10.9c0.8-0.5,2.4-0.2,2.4-1.4c-0.1-1.4-1.7-1.5-2.8-1.8
			c-6.5-1.8-12.8-4.2-18.7-7.4c-4.8-2.6-4.7-2.6-6.9,2.4c-0.3,0.6-0.5,1.2-0.7,1.9c-5.3,13.1-8.6,26.7-8.9,40.9
			C367.1,354,367,362.8,369.1,371.3z M569.8,372.2c-8.6,6.1-17.9,11.1-27.5,16.1c0.6,0.5,1,1.1,1.6,1.4c5.5,3.5,7.2,8.6,6.6,14.8
			c-0.2,2-0.4,4-0.9,5.9c-0.3,1.2,0.2,2,0.6,3c1.9,4.6,6,7,9.3,10.1c7.4,6.9,14.2,14.5,22.5,20.4c4.8,3.4,9.2,7.5,15,9.9
			c0.2-8.8,3-16.6,7.5-23.8c3.7-5.9,8.8-10.6,13.3-15.9c4.6-4.4,9.9-7.7,15.2-11.1c2.3-1.4,1.6-2.1-0.3-3.2c-4.2-2.5-8.5-4.6-12.1-8
			c-6.4-6.1-12.8-12-19.2-18.2c-3.6-3.4-7.2-5.9-12.6-4.5c-2.5,0.6-5.3,0.5-7.9,0.2C576.7,368.7,573,369.4,569.8,372.2z
			 M541.8,428.5c2.8-7.7,4.5-15.7,5.7-23.8c1-6.8-1.6-11.5-7.2-14.2c-1.6-0.8-3.5,0.4-4.4-0.6c-2.7-2.9-6-1-9.2-2.1
			c0.5,1.7,1.5,2.3,2.2,3c4.6,4.6,6.4,10.2,6,16.6c-0.1,1.1-0.2,2.6-1.4,2.7c-1.5,0.1-1.3-1.4-1.4-2.5c-0.2-2.4,0-5-0.8-7.2
			c-2.1-5.8-4.7-11.2-12.1-11.6c-0.9-0.1-1.4-0.5-1.4-1.4c0-0.4,0.1-0.7-0.7-1c-4.2-1.9-8.3-0.9-12.3,0.3c-5,1.5-10.2,2.3-15.1,5.2
			c0.7,0.5,1.2,0.9,1.6,1.2c6.5,4.9,9.1,12.4,12.7,19.3c0.7,1.3,0.6,2.7-1.2,3.1c-1.8,0.5-1.8-1.1-2.2-2.2c-0.4-1.3-0.7-2.6-1.4-3.7
			c-4-6.4-4.9-16-16.2-15.2c-2.6,0.2-5,0.1-7.2,1.5c-4.3,2.8-7.6,6.7-10.6,10.8c-5.5,7.3-7.6,16.1-9.4,24.7
			c-1.5,7.4,0.4,14.9,3.8,21.8c4,8.2,11.6,11.4,19.6,14c3.1,2,6.7,2.3,10.1,2.9c9.4,1.9,18.5,1.6,26.3-5.2c3.1-2.7,6.6-5.2,9.2-8.5
			C531.7,447.8,538.8,439.4,541.8,428.5z M746.6,174.5c-2.6-5.2-5.9-10-10.7-13.3c-9.5-6.6-20.3-8.7-31.6-9.2
			c-4.7-0.2-9.2,0.6-13.2,3.4c-11.1,7.7-19.3,17.9-25.8,29.6c-1.7,3.1-1.6,5.4,1.3,7.6c1.2,0.9,1.9,2.4,3,3.5
			c4.1,4.7,6.3,10.9,11.2,15c4.3,6.5,7.9,13.5,10.3,21.8c3.3-5,7.6-8.2,11.4-11.7c6.9-6.3,14.8-11.5,22.5-16.9
			c2.2-1.5,4.1-4.3,7.1-3c3.3,1.4,2.5,4.9,2.5,7.6c0,7.8-1.2,15.5-2.2,23.2c-2.2,15.3-6.2,30.1-12,44.3c-0.8,1.9-0.3,2.7,1.2,3.7
			c3.7,2.4,6.7,5.5,8.9,9.2c1.6,2.6,2.3,1.8,3.4-0.2c2.6-4.7,5.2-9.5,7.2-14.6c6.1-15.5,11.2-31.3,12.6-48c1-11.6,0.1-23.2-1.2-34.7
			C751.5,185.9,749.8,179.9,746.6,174.5z M321.9,313.5c1.9-1.6,3.9-3.2,5.8-4.9c0.7-0.5,1.3-1.5,2.2-0.6c1,0.9,0.5,1.8-0.3,2.6
			c-1.1,1-1.9,2.1-2.5,3.5c-4.9,3.2-8.7,7.4-11.9,12.2c-4.1,6.1-7.1,12.9-7.8,20c-1,9.4-0.5,18.8,1.4,28.2
			c3.2,15.3,13.1,24.8,27,30.5c10.9,4.5,22,4.4,33.2,0.8c4.3-1.4,8.6-2.6,12.5-5.6c-1.1-0.6-1.8-1.2-2.6-1.4
			c-3.1-0.6-4.3-2.8-5.6-5.4c-3.4-6.9-6.3-14-7.7-21.6c-1.5-11.4-1.6-22.8-0.8-34.3c1-13.8,5.5-26.4,10.7-39
			c0.6-1.5,0.7-2.3-0.8-3.2c-7-4.4-12.8-10-18-16.3c-1.3-1.6-2.4-1.6-3.7,0c-1.9,2.2-3.4,4.6-5,7c-0.5,0.7-0.3,2.5-1.7,1.9
			c-1.4-0.6-0.9-2.2-0.3-3.2c1.2-2,0.7-3.7-0.3-5.6c-2.2-4.3-4.9-8.3-6.8-12.8c-1.2-2.7-2.9-5.2-5.3-7.1c-0.9-0.8-1.5-1.2-2.1,0.4
			c-2.4,6.1-1.8,12.4-1.8,18.7c0,1.4,2.4,1.6,1.6,2.9c-2.1,3.4-0.4,6.4,0.5,9.5c0.6,2.2,0.1,3.2-2.1,2.3c-9-3.7-19.1-3.1-28.1-7
			c-1.6-0.7-2.8-0.7-3.1,1.5c0,7.2,1.8,13.9,6.5,19.6c2.7,3.4,6.3,5.8,9.2,9c1.6,1.8,2.1,2.5-0.9,3.4c-6.2,1.8-12.4,4-18.1,7.2
			c-0.9,0.5-1.9,1-1.8,2.1c0.1,1.1,1.1,1.5,2.1,1.9c3.7,1.7,7.6,1.3,11.4,1.3c1,0,1.7-0.4,2.1-1.3
			C312.6,324.4,317,318.8,321.9,313.5z M421.6,310.1c-1.8,0-3.5,0-5.3,0c-1.8-0.1-3.8-0.9-5.2-0.3c-6.4,3-12.7,6.2-19,9.7
			c-1.6,0.9-4,2.2-3.6,4.2c0.4,2.1,3,2.7,5,3.2c1.5,1.1,3.3,1,5,1.6c18.9,6.3,38.1,7.2,57.6,3.4c1.1-0.2,2.2-0.6,3.1,0.4
			c0.9,1.1,0.2,2.1-0.4,3c-2.8,4.2-5.7,8.3-9.4,11.9c-2.4,2.3-4.4,5.3-5.6,8.8c0.6,0,1,0.1,1.3,0c11-3.2,20.6-8.9,29.5-15.9
			c1.1-0.8,1.9-2,3.4-0.9c4.3,3.1,9.2,5,13.5,8.1c8.1,5.9,16.8,10.8,26.5,13.2c14.7,3.6,29.7,6,44.9,6c4.9,0,10.4,1.9,14.9-3.5
			c-0.6,3.4,0.9,3.7,3.1,3.7c4.6-0.1,9.3-0.3,13.8-1.3c12-2.6,23.8-5.9,35.4-9.8c7.3-2.4,14.6-5.1,20.7-10.1c4-1.8,6.7-5.4,10.3-7.7
			c8.3-5.1,14.4-12.5,19.5-20.3c8.2-12.5,12.5-26.8,13.3-41.6c0.8-14-2.2-27.8-5.9-41.4c-2.4-9-7.3-16.5-12.4-24.2
			c-7.2-11-15.2-20.8-26.5-27.7c-0.9-0.6-1.7-1.4-2.5-2.1c-0.6-0.6-1.5-1.3-0.7-2.2c0.9-1.1,1.8-0.2,2.6,0.3c0.9,0.6,1.8,1.3,2.6,2
			c0.6,0.5,1.1,0.6,1.7-0.1c4-4.9,8.7-9.6,11-15.5c3.7-9.7,4.7-20,4.6-30.3c0-4.5-0.6-9-2.7-13.2c-1.2-2.4-2.5-2.5-4.1-0.7
			c-2.8,3.1-5.4,6.4-8.4,9.3c-0.4,0.3-0.6,1-0.6,1.5c-0.1,3.2-1.3,6.3-1.9,9.4c-0.4,2-1.1,4-1.8,6c-0.4,1.1-1.2,2.2-2.3,1.9
			c-1.3-0.4-0.5-1.7-0.3-2.6c0.3-1.4,0.8-2.8,1.1-4.2c2.6-11.6,4.7-23.3,2-35.1c-1.7-7.3-3.8-14.5-9.2-20.2c-1.5-1.6-2.4-1.9-4,0.1
			c-2.9,3.7-5.7,7.7-9.7,10.4c-3.9,2.7-7.8,5.3-11.7,8c-7.3,5-15.2,8.8-23.6,11.6c-14,4.8-28.6,5.5-43.2,5.4
			c-20.1,0-39.3,3.9-57.5,12.3c-1.7,0.8-2.3,1.5-1.7,3.5c4.4,14.7,6.9,29.7,8.2,44.9c0.1,1.6,0.1,3.3-0.4,4.9
			c-0.3,0.8-0.5,1.5-1.5,1.5c-1.1-0.1-0.8-1-0.9-1.7c-1.2-19-4.1-37.7-11.1-55.6c-4.1-10.6-9.8-19.8-17.9-27.7
			c-10.9-10.5-22.4-19.5-36.9-25.1c-14.1-5.5-26.1-2.3-37.8,5.4c-5.6,3.7-9.7,9-13.6,14.3c-8,11-14,23.1-19.7,35.5
			c-1.6,3.4-2.9,6.9-4.2,10.5c-3.7,10.7-7.8,21.3-10.7,32.2c-3.9,14.5-4,29.5-3.8,44.4c0.2,13.6,4.2,26.2,9.7,38.5
			c4.5,10.2,11.4,18.6,19.5,26c3.4,3.1,6.1,7.9,12,7.2c0.6-0.1,1.1,0.4,1.1,1c0,1.4,1.1,1.5,1.9,2c7.6,4.5,15.8,7.4,24.2,9.7
			c6.6,1.8,13.3,2.4,19.9,0.2c9.1-3,17.9-6.9,26-12.2c1.3-0.8,2.6-2.2,4.5-1.4c-0.6,2.1-2.2,3.3-3.9,4.3
			C443.7,302.7,433,307.3,421.6,310.1z M237.5,176c-0.3-2,1.2-4.4-1.2-6.1c0.1-4.5,1.6-8.7,3.8-12.5c2.3-4.1,6.7-4.5,10.9-4.1
			c3.2,0.4,4.8,2.8,5.9,5.9c3.4,9.9,6.4,20,9.9,29.8c2.5,6.9,5.7,13.3,9,19.7c0.6,1.2,1.6,2,2.9,2.5c6.3,2.3,12.8,2.5,19.3,2.6
			c6.6,0.1,6.5,0.1,6.1-6.6c-0.6-12.7-5.2-24.2-10.9-35.2c-1.8-3.4-0.7-5.4,0.8-7.7c6.6-10.1,11.6-21,16.7-31.9
			c3.4-7.3,5.5-15.1,7.4-22.9c1.4-2.1,0.5-3.4-1.6-4.4c-2-1-4-1.8-6.3-2.1c-8.6-1.4-17.2-0.9-25.7,1c-6.9,1.6-13.4,4.5-19.9,7.3
			c-2.6,1.1-4.6,1.3-7.1-0.9c-6-5.1-12.7-9.5-19.7-12.7c-13.6-6.2-27.7-11-42.4-13.7c-3-0.6-3.2,0.3-3.2,2.7
			c-0.2,9.9,2.4,19.5,3.2,29.3c1.1,13.1,4.9,25.2,11.4,36.6c3.1,5.4,3,5.6-1,10.3c-5.4,6.3-10.7,12.5-14.1,20.2
			c-3.3,7.5-5.5,15.3-8,23c-1.8,5.7-3,5.7,4.6,7.7c0.8,0.7,1.9,0.5,2.8,0.6c6,0.6,12.1,1,18.1,1.7c11,1.3,21.9,2,32.6-2.4
			c1.8-0.7,2.6-1.2,2.1-3.5C241.6,199,239.6,187.5,237.5,176z M305.6,417.9c1.6,0.6,3,0.6,4.4,0.5c6.6-0.7,11.8-4.4,16.6-8.4
			c4.5-3.7,4.1-4.2-1-7.2c-11.5-6.6-17.6-17.2-20.3-29.8c-1.2-5.9-1.3-12-1.4-18.5c-6.4,3.3-11.5,7.8-15.1,13.4
			c-4.3,6.6-6.7,14.2-7.8,22.1c-0.8,5.2-0.7,10.4,1.7,15.3c1,2,2.1,3.9,4.8,4.6c4.5,1.2,8-0.1,11.1-3.2c4.1-4,4.1-4,6.6-4.6
			c-2.9,5.5-6.7,9.2-13,11c4.4,2.5,8.2,3.7,12.6,1.9c3.4-1.4,6.2-3.7,8.8-6.2c0.7-0.7,1.4-2.3,2.6-1.1c0.7,0.8,0.2,2.2-0.8,3.2
			C312.4,413.5,309.7,416.5,305.6,417.9z M684.2,367.7c-0.8-12.3-6.7-21.8-15.5-30c-1-1-1.6-0.2-2.2,0.3
			c-9.6,7.2-18.9,14.9-30.6,18.8c-1.9,0.6-2.2,1.6-1.1,3.1c2.8,3.9,5.8,7.5,10.8,8.7c2.2,0.6,3.1,0.3,3.1-2.1c0-3.9,0-7.7-1.3-11.5
			c-0.3-0.8-0.9-1.7,0.3-2.3c1-0.5,1.6,0.2,2.2,1c3.1,4.4,7.6,6.8,12.5,8.8c6.6,2.7,13.2,5.5,19.8,8.4c1.3,0.6,2.1,0.8,2-1
			C684.2,369.2,684.2,368.5,684.2,367.7z M730.3,293.2c-6.6,3.8-13.7,4.5-20.9,5c-2.1,0.1-3.7,0.8-5.2,2.4c-2.2,2.5-4.8,4.5-7.7,6.2
			c-5.9,3.5-12,6.9-14.4,14.1c-0.6,1.9-2,3.5-3.9,4.8C690.7,329.6,724.2,308.7,730.3,293.2z M432.7,433.4c4.8,0.1,4.8,0.1,3-4
			c-3.4-7.5-7.1-14.9-9.3-22.9c-0.2-0.8-0.6-1.6-1-2.5c-0.3-0.7-0.7-1-1.5-0.9c-6.7,1.1-13.4,0.8-20.1,0.2c-1.6-0.1-2.2,0.2-1.6,2
			c3.3,9.3,8.8,17,16.8,22.7C423.2,431.1,427.6,433.6,432.7,433.4z M513.1,379.6c0.9,1.9,1.9,2.8,3.6,3.2c1.7,0.4,3.5,0.9,4.9,1.8
			c2.3,1.6,4.6,0.7,7,0.5c1.4-0.1,1.3-1.3,1.3-2.3c0.1-1.1-0.3-1.7-1.5-1.8C523.5,380.6,518.5,380.1,513.1,379.6z"/>
		<path fill="#606060" d="M505.4,473.1c-0.1,0.2-0.1,0.4-0.1,0.6c-4.2,0-8.4,0-12.6,0c-0.1-0.2-0.2-0.3-0.1-0.5
			C496.8,473.1,501.1,473.1,505.4,473.1z"/>
		<path fill="#ACACAC" d="M756.6,225.8c0.1-2.2-0.9-4.6,0.6-6.7c0,2.2,0,4.4,0,6.6l-0.3,0.1L756.6,225.8z"/>
		<path fill="#93C9DF" d="M457.6,292.2c-1.9-0.8-3.2,0.5-4.5,1.4c-8.1,5.3-16.8,9.2-26,12.2c-6.6,2.2-13.3,1.6-19.9-0.2
			c-8.4-2.3-16.7-5.2-24.2-9.7c-0.8-0.5-1.9-0.6-1.9-2c0-0.6-0.6-1.1-1.1-1c-5.8,0.7-8.6-4.1-12-7.2c-8.1-7.4-14.9-15.9-19.5-26
			c-5.5-12.3-9.5-24.9-9.7-38.5c-0.3-14.9-0.2-29.9,3.8-44.4c3-10.9,7-21.5,10.7-32.2c1.2-3.5,2.6-7.1,4.2-10.5
			c5.6-12.3,11.6-24.5,19.7-35.5c3.9-5.3,8-10.6,13.6-14.3c11.7-7.7,23.7-10.8,37.8-5.4c14.4,5.6,26,14.6,36.9,25.1
			c8.2,7.9,13.8,17.2,17.9,27.7c7,17.9,9.9,36.6,11.1,55.6c0,0.8-0.2,1.7,0.9,1.7c1,0.1,1.2-0.7,1.5-1.5c0.5-1.6,0.5-3.3,0.4-4.9
			c-1.3-15.2-3.8-30.2-8.2-44.9c-0.6-2,0-2.7,1.7-3.5c18.3-8.5,37.5-12.4,57.5-12.3c14.6,0,29.2-0.7,43.2-5.4
			c8.3-2.8,16.3-6.7,23.6-11.6c3.9-2.7,7.8-5.3,11.7-8c4-2.7,6.7-6.7,9.7-10.4c1.6-2,2.4-1.7,4-0.1c5.4,5.7,7.6,12.9,9.2,20.2
			c2.7,11.8,0.6,23.5-2,35.1c-0.3,1.4-0.8,2.8-1.1,4.2c-0.2,0.9-1,2.2,0.3,2.6c1.1,0.3,2-0.8,2.3-1.9c0.6-2,1.3-4,1.8-6
			c0.7-3.1,1.8-6.1,1.9-9.4c0-0.5,0.3-1.1,0.6-1.5c3.1-2.9,5.6-6.2,8.4-9.3c1.6-1.8,2.9-1.7,4.1,0.7c2.1,4.2,2.6,8.7,2.7,13.2
			c0.1,10.3-0.9,20.6-4.6,30.3c-2.3,6-7,10.6-11,15.5c-0.6,0.7-1.1,0.6-1.7,0.1c-0.9-0.7-1.7-1.4-2.6-2c-0.8-0.6-1.7-1.4-2.6-0.3
			c-0.8,0.9,0.1,1.6,0.7,2.2c0.8,0.8,1.6,1.6,2.5,2.1c11.3,6.9,19.3,16.8,26.5,27.7c5,7.7,9.9,15.2,12.4,24.2
			c3.7,13.6,6.6,27.4,5.9,41.4c-0.8,14.8-5.1,29.1-13.3,41.6c-5.2,7.8-11.3,15.2-19.5,20.3c-3.6,2.3-6.3,5.9-10.3,7.7
			c-3,0.3-5.9,0.4-8.9,0.9c-10.3,1.5-20.8,2.4-31.2,3c-7.7,0.5-15.5,0.2-23.2,0.1c-2.7,0-5.4-0.2-7.9-1.4c1.7-3.8,4.1-7.2,6.2-10.8
			c1.1-1.9,2.1-2.8,4.4-2.4c2.4,0.3,4.9,0.1,7.3,0.1c1.3,0,2.7-0.1,2.7-1.7c0-1.4-1.5-1-2.4-1c-2-0.1-4-0.2-6-0.2
			c-25.1-0.9-44.8-12-59.4-32.3c-0.9-1.2-1.9-2-3.1-0.3c-5.8,8.3-8.9,17.6-10.1,27.6c-1.2,1.2-0.1,2.8-0.9,4.2
			c-2.7-0.2-4.9-1.8-7.3-2.9c-11.1-4.8-22.2-9.8-31.8-17.4C471.8,304.8,464.8,298.4,457.6,292.2z M463.2,242.7
			c-0.4-3.8-3.3-5.1-6.2-6.2c-6.5-2.6-12.5-6-18.5-9.5c-0.9-0.5-1.6-1-1.8-2.1c-1.5-7.2-3.6-14.2-6.3-21.1
			c-4.9-12.4-8.8-25.2-14.5-37.4c-2.3-5-4.9-9.7-6.9-14.8c-0.7-1.8-1-4.3-3.2-4.7c-2.4-0.4-3.1,2.1-4.3,3.6c-0.8,0.9-1.4,2-1.9,3.1
			c-2.9,6.2-5.8,12.3-8.5,18.5c-4.1,9.2-7.6,18.7-12.3,27.6c-5.2,10-9.2,20.2-10.6,31.4c-0.4,3-0.9,5.5-3.5,7.4
			c-2.6,1.9-5,3.9-7.3,6.2c-6.4,6.3-6.6,3.8-0.2,10.6c5.8,6.1,13.5,9.8,21.5,12.5c3.2,1.1,6.1,2.4,8,5.5c2.3,3.8,4.6,7.6,7.1,11.2
			c2.9,4.2,5.8,8.5,10,11.7c1.7,1.3,3.2,1.4,4.7,0c2.5-2.3,4.9-4.6,7.3-7.1c5.8-6,9.8-13.3,13.9-20.5c0.6-1,1.2-2,2.3-2.6
			c3.5-2.1,7-4.3,10.4-6.5c6.7-4.2,13.5-8.4,19.2-14C462.5,244.7,463.5,244,463.2,242.7z M684,266.7c0.5-7-0.5-13.6-1.9-20
			c-1.4-6.2-8.2-10.6-13.9-8.7c-3.9,1.3-7.4,3.3-10.3,6.4c-5.6,6.1-10.7,12.8-14.6,20c-7.9,14.7-8.5,30.4-0.3,45.4
			c5.7,10.5,14.9,10.8,23.3,2.6c7-6.9,10.1-16.1,13.8-24.9C683,280.7,684.6,273.6,684,266.7z M544.9,233.2
			c0.3-11-4.6-24.2-11.5-30.7c-3.9-3.7-10-4.9-14.5-2.6c-6.7,3.4-12.8,8-17.6,13.8c-8.6,10.4-14.1,22.4-15.7,36
			c-0.4,3.4-2.3,6.7-1.3,10c1.6,5.1,1.8,10.6,4.4,15.4c3.3,6.3,7.2,12.3,14.6,14.5c8.3,2.5,15.2-0.8,21.4-5.8
			c6.8-5.4,10.7-13.1,14.1-20.8C542.8,253.5,544.7,243.5,544.9,233.2z M604.7,297.4c0.8-0.2,1.9-0.4,2.9-0.6
			c2.3-0.6,4.6-1.2,4.8-4.1c0.2-2.9-1.5-4.4-3.9-5.9c-3.9-2.5-8-4-12.5-4.7c-2.5-0.4-4.7,0.4-6.2,2.2c-1.7,2-0.9,4.4,0.5,6.1
			C594,294.8,598.7,297.1,604.7,297.4z"/>
		<path fill="#B58116" d="M318,109.6c-1.8,7.8-3.9,15.7-7.4,22.9c-5.1,10.8-10.1,21.8-16.7,31.9c-1.6,2.4-2.6,4.4-0.8,7.7
			c5.7,11,10.3,22.5,10.9,35.2c0.3,6.7,0.5,6.8-6.1,6.6c-6.5-0.1-13-0.4-19.3-2.6c-1.4-0.5-2.3-1.2-2.9-2.5
			c-3.3-6.4-6.5-12.9-9-19.7c-3.5-9.9-6.5-19.9-9.9-29.8c-1.1-3.1-2.8-5.5-5.9-5.9c-4.1-0.5-8.5,0-10.9,4.1c-2.1,3.8-3.7,8-3.8,12.5
			c0.3,2-1.1,4.4,1.2,6.1c2.1,11.5,4.2,23,6.4,34.4c0.4,2.2-0.3,2.7-2.1,3.5c-10.6,4.4-21.5,3.7-32.6,2.4c-6-0.7-12.1-1.2-18.1-1.7
			c-1-0.1-2,0-2.8-0.6c1.8,0.1,2.8-0.5,3.2-2.4c2.2-9.4,5.6-18.2,11.6-26c4.4-5.9,7.5-12.9,12.8-18c4.9-4.6,5.4-8.2,1.4-13.9
			c-4-5.6-5.3-12.8-7.1-19.5c-3.3-12.1-5.1-24.3-5.2-36.8c0-2.2,0.2-3.3,2.9-2.4c11.6,3.8,22.5,9.1,32.9,15.4
			c5.7,3.4,10.1,8.5,15.4,12.5c1.6,1.2,2.8,1.7,4.7,0.7c4.4-2.3,8.9-4.3,13.5-6.2c10.6-4.5,21.6-6.7,33.1-7.1
			C311,110.1,314.5,110.5,318,109.6z"/>
		<path fill="#6997C5" d="M579.6,347.9c2.5,1.3,5.3,1.4,7.9,1.4c7.7,0.1,15.5,0.4,23.2-0.1c10.4-0.6,20.8-1.5,31.2-3
			c2.9-0.4,5.9-0.6,8.9-0.9c-6.1,5-13.4,7.7-20.7,10.1c-11.6,3.9-23.4,7.3-35.4,9.8c-4.6,1-9.2,1.2-13.8,1.3c-2.2,0-3.7-0.4-3.1-3.7
			c-4.5,5.4-10,3.5-14.9,3.5c-15.2,0.1-30.2-2.3-44.9-6c-9.7-2.4-18.4-7.4-26.5-13.2c-4.3-3.1-9.2-5-13.5-8.1
			c-1.5-1.1-2.3,0.1-3.4,0.9c-8.9,7-18.6,12.7-29.5,15.9c-0.3,0.1-0.6,0-1.3,0c1.1-3.5,3.2-6.4,5.6-8.8c3.7-3.6,6.6-7.6,9.4-11.9
			c0.6-0.9,1.3-2,0.4-3c-0.8-1-1.9-0.6-3.1-0.4c-19.5,3.8-38.7,3-57.6-3.4c-1.7-0.6-3.5-0.5-5-1.6c7.2-4.8,14.4-9.6,22.2-13.2
			c2-0.9,4.4-1.4,5.8-3.6c11.4-2.8,22.1-7.4,32.1-13.5c1.7-1,3.3-2.3,3.9-4.3c7.2,6.2,14.2,12.5,21.6,18.4
			c9.6,7.6,20.7,12.6,31.8,17.4c2.4,1,4.5,2.7,7.3,2.9c0.7-1.4-0.3-3,0.9-4.2c-0.5,9.2,2.6,17.4,7.7,24.8c2.7,3.9,5.2,8.4,10.3,9.8
			c7.3,2.1,14.7,1.8,22,0.1C567.5,359.4,574.3,354.8,579.6,347.9z"/>
		<path fill="#232323" d="M298.7,287.6c0.2-2.2,1.5-2.2,3.1-1.5c8.9,4,19,3.3,28.1,7c2.2,0.9,2.7-0.1,2.1-2.3
			c-0.8-3.1-2.6-6.1-0.5-9.5c0.8-1.3-1.6-1.6-1.6-2.9c0-6.3-0.6-12.6,1.8-18.7c0.6-1.6,1.2-1.2,2.1-0.4c2.4,1.9,4.1,4.4,5.3,7.1
			c1.9,4.5,4.6,8.5,6.8,12.8c1,1.9,1.5,3.6,0.3,5.6c-0.6,1-1.1,2.6,0.3,3.2c1.4,0.6,1.2-1.2,1.7-1.9c1.6-2.4,3.1-4.8,5-7
			c1.3-1.6,2.4-1.6,3.7,0c5.2,6.3,11,12,18,16.3c1.5,0.9,1.4,1.7,0.8,3.2c-5.2,12.5-9.7,25.2-10.7,39c-0.8,11.5-0.7,22.9,0.8,34.3
			c0,1.7-1.5,2.1-2.6,2.6c-2.1,0.9-4.3,1.7-6.4,2.6c-14.6,6.1-32.6-4-35.5-19.7c-1.6-8.9,0.5-17.5,1.7-26.2
			c0.8-5.9,3.9-11.2,4.3-17.2c0.6-1.3,1.4-2.5,2.5-3.5c0.8-0.8,1.2-1.7,0.3-2.6c-1-0.9-1.6,0-2.2,0.6c-1.9,1.6-3.9,3.2-5.8,4.9
			c-6.6-4.2-13.3-8.2-18.1-14.6C301.3,295.6,300.6,291.3,298.7,287.6z"/>
		<path fill="#6997C5" d="M746.6,174.5c3.1,5.4,4.9,11.3,5.6,17.4c1.3,11.5,2.2,23,1.2,34.7c-1.4,16.8-6.5,32.5-12.6,48
			c-2,5.1-4.5,9.8-7.2,14.6c-1.1,2-1.8,2.9-3.4,0.2c-2.2-3.7-5.3-6.8-8.9-9.2c-1.5-1-2-1.8-1.2-3.7c5.9-14.3,9.8-29,12-44.3
			c1.1-7.7,2.3-15.4,2.2-23.2c0-2.7,0.8-6.2-2.5-7.6c-3-1.3-4.9,1.4-7.1,3c-7.7,5.4-15.5,10.5-22.5,16.9c-3.9,3.5-8.1,6.7-11.4,11.7
			c-2.5-8.4-6-15.3-10.3-21.8c1.8-0.3,2.2-2,3-3.3c2.8-4.6,5.4-9.4,9.3-13.2c8.4-8.2,18.3-14.2,29.1-18.6c7.5-3.1,15.1-4.2,22.8-1.2
			C745.6,175.1,746.1,175.3,746.6,174.5z"/>
		<path fill="#93C9DF" d="M479.3,467.1c-8-2.7-15.6-5.8-19.6-14c-3.4-6.9-5.3-14.4-3.8-21.8c1.7-8.6,3.9-17.5,9.4-24.7
			c3-4,6.3-7.9,10.6-10.8c2.2-1.4,4.5-1.3,7.2-1.5c11.4-0.8,12.2,8.8,16.2,15.2c0.7,1.1,1,2.5,1.4,3.7c0.4,1.1,0.4,2.6,2.2,2.2
			c1.8-0.4,1.8-1.8,1.2-3.1c-3.6-6.9-6.2-14.4-12.7-19.3c-0.4-0.3-0.8-0.6-1.6-1.2c4.9-2.8,10.1-3.7,15.1-5.2
			c4-1.2,8.1-2.2,12.3-0.3c0.7,0.3,0.7,0.6,0.7,1c0,1,0.5,1.4,1.4,1.4c7.3,0.4,10,5.9,12.1,11.6c0.8,2.2,0.6,4.8,0.8,7.2
			c0.1,1.1-0.1,2.6,1.4,2.5c1.2-0.1,1.4-1.6,1.4-2.7c0.4-6.4-1.5-12-6-16.6c-0.8-0.8-1.8-1.3-2.2-3c3.2,1.1,6.5-0.9,9.2,2.1
			c0.9,1,2.9-0.2,4.4,0.6c5.6,2.7,8.2,7.4,7.2,14.2c-1.2,8.1-2.9,16.1-5.7,23.8c-2.6-2.5-5.2-5-7.8-7.5c-7.8-7.5-15.4-8.5-24.5-2.8
			c-3.6,2.3-7.4,4.4-10.5,7.3c-8.2,7.6-15.8,15.7-17.1,27.6c-0.4,3.7-1.2,7.4-1.2,11.1C480.7,465.4,481.1,466.8,479.3,467.1z"/>
		<path fill="#6997C5" d="M617.7,414c-4.4,5.3-9.6,10-13.3,15.9c-4.5,7.2-7.3,15-7.5,23.8c-5.8-2.4-10.2-6.5-15-9.9
			c-8.3-5.9-15.1-13.4-22.5-20.4c-3.3-3.1-7.4-5.5-9.3-10.1c-0.4-1.1-0.9-1.8-0.6-3c0.4-1.9,0.7-3.9,0.9-5.9
			c0.7-6.2-1-11.4-6.6-14.8c-0.5-0.3-1-0.8-1.6-1.4c9.5-5,18.8-10,27.5-16.1c0.5,2.6,3.1,3.3,4.7,4.9c9.5,9.5,20,17.9,29.5,27.4
			C607.9,408.4,612.7,411.4,617.7,414z"/>
		<path fill="#E9BF1B" d="M318,109.6c-3.5,0.9-7,0.5-10.6,0.6c-11.4,0.4-22.5,2.6-33.1,7.1c-4.6,1.9-9.1,3.9-13.5,6.2
			c-1.9,1-3.1,0.5-4.7-0.7c-5.3-4-9.7-9.1-15.4-12.5c-10.4-6.2-21.3-11.5-32.9-15.4c-2.8-0.9-2.9,0.2-2.9,2.4
			c0.1,12.5,1.9,24.8,5.2,36.8c1.8,6.7,3.1,13.9,7.1,19.5c4,5.7,3.5,9.3-1.4,13.9c-5.4,5.1-8.4,12.1-12.8,18
			c-5.9,7.8-9.3,16.6-11.6,26c-0.4,1.9-1.5,2.5-3.2,2.4c-7.6-2-6.4-2-4.6-7.7c2.5-7.7,4.7-15.6,8-23c3.4-7.7,8.8-13.9,14.1-20.2
			c4-4.7,4.1-4.9,1-10.3c-6.5-11.4-10.3-23.5-11.4-36.6c-0.8-9.8-3.4-19.4-3.2-29.3c0-2.5,0.2-3.3,3.2-2.7
			c14.8,2.7,28.9,7.5,42.4,13.7c7.1,3.2,13.7,7.6,19.7,12.7c2.5,2.1,4.5,2,7.1,0.9c6.5-2.8,12.9-5.8,19.9-7.3
			c8.5-1.9,17.1-2.4,25.7-1c2.2,0.4,4.2,1.2,6.3,2.1C318.5,106.2,319.4,107.4,318,109.6z"/>
		<path fill="#93C9DF" d="M369.1,371.3c-2.1-8.6-2-17.3-1.7-26c0.4-14.2,3.6-27.8,8.9-40.9c0.2-0.6,0.5-1.2,0.7-1.9
			c2.2-5.1,2.1-5,6.9-2.4c5.9,3.2,12.2,5.6,18.7,7.4c1.1,0.3,2.7,0.4,2.8,1.8c0,1.2-1.6,0.8-2.4,1.4c-5.6,3.8-12.7,5.2-17.1,10.9
			c-1.1,1.5-1.1,2.4-0.1,3.7c2.7,3.3,6.5,4.4,10.3,5.5c2.8,0.7,5.5,1.5,8.3,2.3c0.8,0.2,1.8,0.3,1.5,1.7c-1.2,5.9,0.1,11.7,1.8,17.3
			c2.2,7.3,3.8,14.9,7.3,21.9c-0.1,1.1-0.9,1.3-1.9,1.4C398.2,375.9,383.2,378.5,369.1,371.3z"/>
		<path fill="#232323" d="M247.5,156c2.9-0.7,4.3,0.7,5.3,3.3c5.9,14.5,9.2,29.9,16.4,43.8c6.5,12.6,12.3,25.6,20.1,37.4
			c4.5,6.8,9.6,13.1,14.9,19.3c5.6,6.6,11.2,13.5,18.6,18c4.2,2.6,4.8,5.8,5.4,9.7c0.3,1.6,0,2-1.7,1.6c-8-2-16.2-2.7-24-5.7
			c-4.9-4.1-10.3-7.7-14.5-12.4c-6.9-7.7-11.9-16.9-17.7-25.4c-4.4-6.6-7.8-13.8-10.9-21.1c-2.3-5.6-5.2-11.1-6.5-16.9
			C249.2,190.7,248.3,173.4,247.5,156z"/>
		<path fill="#131313" d="M327.2,314.2c-0.4,6-3.5,11.3-4.3,17.2c-1.2,8.7-3.4,17.2-1.7,26.2c2.9,15.7,21,25.8,35.5,19.7
			c2.1-0.9,4.3-1.7,6.4-2.6c1.2-0.5,2.6-0.9,2.6-2.6c1.4,7.6,4.3,14.7,7.7,21.6c1.3,2.6,2.6,4.8,5.6,5.4c0.8,0.2,1.5,0.8,2.6,1.4
			c-3.9,3-8.2,4.2-12.5,5.6c-11.2,3.6-22.3,3.7-33.2-0.8c-13.9-5.8-23.9-15.2-27-30.5c-1.9-9.3-2.4-18.8-1.4-28.2
			c0.7-7.2,3.8-13.9,7.8-20C318.5,321.6,322.3,317.4,327.2,314.2z"/>
		<path fill="#93C9DF" d="M422.2,336.7c11,1,22,0.7,33.5-2c-1.7,3.4-3.6,5.7-5.7,7.7c-3.8,3.5-6.4,7.8-8.8,12.3
			c-0.6,1.1-1.2,2.5-0.2,3.7c1.1,1.4,2.6,1,4,0.5c6.5-2.1,12.9-4.6,18.7-8.3c3.1-1.9,6.5-3.3,9.2-5.7c2.3-2.1,4.4-0.6,5.8,0.8
			c7.4,7.8,14.7,15.8,21.4,24.2c0.2,0.2,0.3,0.6,0.6,1.2c-5.1,0.6-10,1.4-14.9,2.4c-13.6,3-24.4,10.3-33.8,20.2
			c-2.3,2.4-4.6,4.7-6.5,7.4c-1.4-1.1-1.5-2.9-2-4.4c-3-9.8-6.6-19.4-11.7-28.3C426.1,358.6,423,348.1,422.2,336.7z"/>
		<path fill="#6997C5" d="M479.3,467.1c1.8-0.3,1.4-1.7,1.4-2.9c0-3.8,0.7-7.4,1.2-11.1c1.3-12,9-20,17.1-27.6
			c3.1-2.9,6.9-5.1,10.5-7.3c9.1-5.7,16.7-4.7,24.5,2.8c2.6,2.5,5.2,5,7.8,7.5c-3.1,10.9-10.1,19.4-17,28c-2.6,3.3-6.1,5.7-9.2,8.5
			c-7.7,6.8-16.8,7-26.3,5.2C486,469.4,482.4,469.1,479.3,467.1z"/>
		<path fill="#93C9DF" d="M746.6,174.5c-0.5,0.7-1.1,0.6-1.7,0.3c-7.8-3-15.4-1.8-22.8,1.2c-10.8,4.4-20.7,10.4-29.1,18.6
			c-3.9,3.8-6.5,8.6-9.3,13.2c-0.8,1.3-1.1,3-3,3.3c-4.8-4.2-7-10.3-11.2-15c-1-1.2-1.8-2.6-3-3.5c-2.9-2.2-3-4.5-1.3-7.6
			c6.5-11.8,14.7-21.9,25.8-29.6c4-2.8,8.5-3.6,13.2-3.4c11.3,0.5,22.2,2.7,31.6,9.2C740.7,164.6,744,169.3,746.6,174.5z"/>
		<path fill="#6997C5" d="M680.8,415.7c1,5.4,0.5,10.5-1.9,15.7c-2.4,5.2-4.8,10.4-7.6,15.4c-6.7,11.9-16.5,19.4-29.9,22.7
			c-7.8,1.9-15.2,2.3-22.7-1.1c-1.6-0.7-1.9-1.5-1.7-3c2.4-13.8,8.9-25.5,19.1-35c1.5,2.8,3.4,2.9,6.3,1.6c4.3-2,8.3-4.5,12.5-6.6
			c5.4-2.7,11-4.9,16.6-0.4c1.3,4.2-0.2,8-1.9,11.7c-0.3,0.7-1.5,1.5-0.2,2.2c0.9,0.5,1.3-0.4,1.8-1c4.3-4.3,3.7-9.6,2.9-14.9
			c1.8-0.7,2.3-3.1,4-3.5C680.5,419,680.8,417.5,680.8,415.7z"/>
		<path fill="#E9BF1B" d="M729.9,222.5c-0.8,16.2-4.7,31.7-10.1,46.8c-0.9,2.5-1.9,5-3,7.3c-1,2-0.6,3.2,1.3,4.4
			c3.5,2.2,6.5,4.9,9.1,8.2c1.4,1.8,1,2.8-1.1,3.7c-5.4,2.3-11.2,2.6-16.9,2.9c-3.1,0.2-5.3,1.1-7.4,3.6c-3.3,3.9-8.2,5.8-11.9,8.9
			c-0.9-0.5-0.6-0.9-0.4-1.2c4.1-8.5,5.4-17.7,7.5-26.8c0.9-3.8,1.9-7.6,1-11.3c-1.2-5.2-1.6-10.6-2.8-15.8
			c-0.2-0.9-0.1-1.4,0.3-2.1c0.3-0.2,0.6-0.3,0.9-0.5c6.9-6.6,13.1-13.9,21.1-19.2C721.6,228.5,725.3,224.8,729.9,222.5z"/>
		<path fill="#93C9DF" d="M305.6,417.9c4.1-1.3,6.8-4.3,9.7-7.1c1-1,1.5-2.4,0.8-3.2c-1.1-1.3-1.9,0.4-2.6,1.1
			c-2.6,2.5-5.4,4.8-8.8,6.2c-4.4,1.9-8.3,0.6-12.6-1.9c6.3-1.8,10.2-5.5,13-11c-2.5,0.6-2.5,0.6-6.6,4.6c-3.1,3.1-6.6,4.4-11.1,3.2
			c-2.7-0.7-3.7-2.6-4.8-4.6c-2.5-4.8-2.5-10.1-1.7-15.3c1.1-7.9,3.5-15.4,7.8-22.1c3.6-5.6,8.7-10.1,15.1-13.4
			c0.2,6.5,0.2,12.6,1.4,18.5c2.7,12.6,8.7,23.2,20.3,29.8c5.2,3,5.5,3.5,1,7.2c-4.8,4-10,7.7-16.6,8.4
			C308.6,418.5,307.2,418.5,305.6,417.9z"/>
		<path fill="#131313" d="M247.5,156c0.8,17.3,1.7,34.7,5.5,51.7c1.3,5.8,4.2,11.3,6.5,16.9c3.1,7.3,6.5,14.5,10.9,21.1
			c5.8,8.6,10.8,17.7,17.7,25.4c4.2,4.7,9.6,8.3,14.5,12.4c-7.3,0.1-6.6-1-6.7,6.9c0,0.4,0,0.9,0,1.3c-0.1,0.7,0.4,1.7-0.5,2.1
			c-0.9,0.4-1.5-0.5-2-0.9c-3.3-3.1-6.8-6-9.7-9.4c-4.8-5.7-9.7-11.5-13.6-17.8c-4.5-7.2-8.5-14.7-11.4-22.7
			c-3.3-9.2-7.8-17.9-10.2-27.5c-3.2-13.2-5.5-26.6-8.2-39.8c-0.9-4.4-0.9-8.9,0.5-13.3C242.1,158.5,244.2,156.3,247.5,156z"/>
		<path fill="#6997C5" d="M422.2,336.7c0.8,11.3,3.9,21.8,9.6,31.8c5.1,8.9,8.7,18.5,11.7,28.3c0.5,1.5,0.6,3.3,2,4.4
			c-5.4,8.1-7.6,16.9-6.6,27c-5.1-6.8-11.4-25.8-9.3-28.5c-2.1,0.3-2.8-0.8-3.4-2.5c-3.6-10.9-7-21.9-11.2-32.6
			c-2.3-6-4-12-5.8-18.1c-1-3.3-1-6.8-0.9-10.2c0-0.9-0.1-2.2,1.5-1.9C414,335.3,418.1,336,422.2,336.7z"/>
		<path fill="#93C9DF" d="M617.7,414c-5-2.6-9.8-5.6-13.8-9.5c-9.5-9.5-20-17.9-29.5-27.4c-1.6-1.6-4.1-2.3-4.7-4.9
			c3.2-2.8,6.9-3.5,11.1-3c2.6,0.3,5.4,0.4,7.9-0.2c5.4-1.3,9,1.1,12.6,4.5c6.3,6.1,12.8,12.1,19.2,18.2c3.6,3.4,7.9,5.6,12.1,8
			c1.9,1.1,2.5,1.8,0.3,3.2C627.6,406.2,622.3,409.6,617.7,414z"/>
		<path fill="#6997C5" d="M369.1,371.3c14.1,7.1,29.2,4.6,44,4c1,0,1.7-0.2,1.9-1.4c3,8.7,6.1,17.4,9.2,26.3
			c-9.7,1.8-19.1,0.7-28.4-0.2c-5.5-0.5-11-1.6-16.3-3.8c-1.5-0.6-2.2-1.5-2.9-2.9c-2.7-5.3-5.3-10.7-6.7-16.5
			C369.4,375,369,373.2,369.1,371.3z"/>
		<path fill="#232323" d="M446.2,406.5c0.8-3.4,3.7-5.4,5.7-7.9c8-9.5,17.5-17.1,29.4-21c7.1-2.3,14.3-3.3,21.8-3.2
			c2.6,0.1,3.1,2.2,4.5,3.5c1.3,1.2,3.6,2.4,3.1,3.9c-0.4,1.3-3.1,1-4.7,1.4c-4.3,1.2-8.7,2.4-13,3.8c-4.2,1.4-8,3.9-12.9,3.7
			c-2.3-0.1-4.5,1.5-6.5,3c-8.9,6.7-14.8,15.3-17.6,26c-1.6-0.1-2.2-1.2-2.8-2.4C451.1,413.7,448.9,409.9,446.2,406.5z"/>
		<path fill="#6997C5" d="M684.2,367.7c0,0.8,0,1.6,0,2.3c0.1,1.8-0.6,1.6-2,1c-6.6-2.9-13.2-5.7-19.8-8.4c-4.9-2-9.4-4.4-12.5-8.8
			c-0.5-0.8-1.2-1.5-2.2-1c-1.2,0.6-0.6,1.5-0.3,2.3c1.3,3.7,1.3,7.6,1.3,11.5c0,2.4-0.8,2.6-3.1,2.1c-5-1.3-8-4.9-10.8-8.7
			c-1.1-1.5-0.8-2.5,1.1-3.1c11.7-3.8,21-11.5,30.6-18.8c0.7-0.5,1.2-1.3,2.2-0.3C677.5,345.8,683.5,355.4,684.2,367.7z"/>
		<path fill="#131313" d="M634.2,427.8c-3.1,3.4-6.6,6.6-9.1,10.4c-5.1,7.6-9.4,15.8-10.8,25c-0.4,2.7-1.1,2.1-2.8,0.9
			c-3.4-2.6-6-6.3-10.5-7.5c-0.9-0.2-0.7-1.5-0.8-2.4c-0.4-5.4,0.9-10.6,3-15.5c3.9-8.9,10.3-16,17-22.9c0,0.8,0.4,1.4,1.1,1.9
			C625.7,421.1,629.9,424.5,634.2,427.8z"/>
		<path fill="#131313" d="M532.6,384c-0.1-4.9-1-5.7-6.4-6c-4.2-0.2-8.3-0.6-12.5-1.1c-3-0.3-5-2-7.1-4.3
			c-5.3-5.9-10.7-11.7-15.6-17.9c-1.8-2.2-3.6-4.4-5.4-6.7c1.1-0.7,1.7,0,2.2,0.4c13.5,10.2,29,15,45.5,17.8
			c9.2,1.6,18.5,2,27.8,3.1c-0.3,0.3-0.5,0.8-0.8,1c-5.5,3.3-10.8,6.8-16.7,9.1C539.9,380.9,536.2,382.5,532.6,384z"/>
		<path fill="#B58116" d="M729.9,222.5c-4.6,2.4-8.4,6-12.6,8.9c-8,5.4-14.3,12.7-21.1,19.2c-0.2,0.2-0.6,0.3-0.9,0.5
			c-1-4.7-2.4-9.4-3-14.2c-0.3-2.8,2.4-4.7,4.2-6.4c5.3-5,10.5-10.1,16.4-14.4c5.1-3.7,10.2-7.2,15.4-10.8c1.8-1.2,2.4-0.4,2.4,1.4
			C730.8,211.9,731,217.2,729.9,222.5z"/>
		<path fill="#6997C5" d="M730.3,293.2c-6.2,15.5-39.7,36.4-52,32.5c1.9-1.3,3.3-2.9,3.9-4.8c2.4-7.2,8.5-10.6,14.4-14.1
			c2.9-1.7,5.5-3.7,7.7-6.2c1.4-1.6,3-2.3,5.2-2.4C716.6,297.7,723.7,297,730.3,293.2z"/>
		<path fill="#6997C5" d="M432.7,433.4c-5.1,0.2-9.5-2.3-13.7-5.3c-8-5.7-13.6-13.4-16.8-22.7c-0.6-1.8,0-2.2,1.6-2
			c6.7,0.6,13.4,0.9,20.1-0.2c0.8-0.1,1.2,0.2,1.5,0.9c0.3,0.8,0.8,1.6,1,2.5c2.2,8,5.9,15.4,9.3,22.9
			C437.5,433.5,437.5,433.5,432.7,433.4z"/>
		<path fill="#232323" d="M634.2,427.8c-4.3-3.4-8.6-6.7-12.9-10.1c-0.7-0.5-1.1-1.1-1.1-1.9c4.8-5.2,10.9-8.4,16.7-12.3
			c0.5-0.3,1.4-0.4,1.9-0.2c5.9,2.6,11.8,5.3,18,8.2C648.1,415.8,641.6,422.4,634.2,427.8z"/>
		<path fill="#131313" d="M446.2,406.5c2.7,3.4,5,7.1,7.1,10.9c0.7,1.2,1.3,2.3,2.8,2.4c-1.1,5.8-4.3,11.3-3.2,17.6
			c0.9,4.8,1.4,9.7,3.5,14.7C439.7,441.9,438.3,420.6,446.2,406.5z"/>
		<path fill="#93C9DF" d="M671.6,425.1c-5.6-4.5-11.2-2.3-16.6,0.4c-4.2,2.1-8.2,4.6-12.5,6.6c-2.9,1.3-4.8,1.1-6.3-1.6
			c1-0.9,1.3-3,3.4-1.3c1,0.7,1.8-0.4,2.5-1.4c2.8-4.5,6.3-8.5,10.9-11.2C661.7,411.5,670.1,415.4,671.6,425.1z"/>
		<path fill="#131313" d="M298.7,287.6c1.9,3.7,2.6,8,5.1,11.4c4.8,6.4,11.6,10.4,18.1,14.6c-5,5.2-9.3,10.9-12.7,17.3
			c-0.5,0.9-1.2,1.3-2.1,1.3c-3.9,0-7.7,0.4-11.4-1.3c-0.9-0.4-2-0.8-2.1-1.9c-0.1-1.2,0.9-1.7,1.8-2.1c5.8-3.1,11.9-5.3,18.1-7.2
			c2.9-0.9,2.4-1.6,0.9-3.4c-2.8-3.2-6.4-5.7-9.2-9C300.5,301.4,298.7,294.8,298.7,287.6z M304.1,330.8c2.3,0.5,3.6-0.4,4.4-2.5
			c0.3-0.8,0.8-1.5,1.2-2.3c0.5-0.9,1.8-1.8,0.9-2.8c-0.8-1-2.1,0-3.1,0.3c-1.6,0.6-3.3,1.2-4.8,2.1c-1.9,1.1-5.8,0.9-5.4,3.1
			C298,331,301.9,330,304.1,330.8z"/>
		<path fill="#93C9DF" d="M421.6,310.1c-1.3,2.1-3.7,2.6-5.8,3.6c-7.9,3.6-15,8.5-22.2,13.2c-2-0.6-4.6-1.1-5-3.2
			c-0.4-2,2-3.4,3.6-4.2c6.2-3.4,12.5-6.7,19-9.7c1.4-0.6,3.4,0.2,5.2,0.3C418,310.1,419.8,310.1,421.6,310.1z"/>
		<path fill="#222222" d="M532.6,384c3.7-1.5,7.3-3,11-4.5c6-2.4,11.3-5.9,16.7-9.1c0.4-0.2,0.6-0.7,0.8-1c2.2,0,4.4,0,6.6,0
			c0.4,1-0.3,1.4-0.8,1.7c-8.6,5.1-17,10.7-26.2,14.8C537.5,387.3,533.9,386.5,532.6,384z"/>
		<path fill="#93C8DE" d="M680.8,415.7c-0.1,1.8-0.4,3.2-2.6,3.9c-1.7,0.5-2.3,2.8-4,3.5c-1.6-3.8-3.6-7.4-7.2-9.6
			c-1.1-0.7-1.2-1.5-1.2-2.5c0-1.1,1.2-1.1,2-1.4C674.4,406.9,679.9,409.5,680.8,415.7z"/>
		<path fill="#6794C1" d="M513.1,379.6c5.4,0.5,10.4,1,15.4,1.5c1.1,0.1,1.5,0.7,1.5,1.8c-0.1,1,0.1,2.1-1.3,2.3
			c-2.3,0.2-4.7,1-7-0.5c-1.4-1-3.2-1.4-4.9-1.8C515,382.4,514,381.5,513.1,379.6z"/>
		<path fill="#5B410B" d="M237.5,176c-2.3-1.6-0.9-4-1.2-6.1C238.6,171.6,237.2,174,237.5,176z"/>
		<path fill="#010101" d="M463.2,242.7c0.2,1.3-0.8,1.9-1.5,2.7c-5.7,5.6-12.4,9.8-19.2,14c-3.5,2.2-6.9,4.4-10.4,6.5
			c-1.1,0.7-1.7,1.6-2.3,2.6c-4.1,7.2-8.1,14.5-13.9,20.5c-2.4,2.4-4.8,4.8-7.3,7.1c-1.5,1.4-3.1,1.3-4.7,0
			c-4.2-3.2-7.1-7.5-10-11.7c-2.5-3.6-4.8-7.4-7.1-11.2c-1.9-3.1-4.8-4.4-8-5.5c-8-2.7-15.7-6.4-21.5-12.5
			c-6.4-6.8-6.2-4.3,0.2-10.6c2.3-2.2,4.7-4.3,7.3-6.2c2.6-1.9,3.1-4.4,3.5-7.4c1.3-11.2,5.3-21.4,10.6-31.4
			c4.7-8.9,8.2-18.4,12.3-27.6c2.8-6.2,5.7-12.4,8.5-18.5c0.5-1.1,1.1-2.2,1.9-3.1c1.2-1.5,1.9-4,4.3-3.6c2.2,0.4,2.5,2.8,3.2,4.7
			c2,5.1,4.6,9.9,6.9,14.8c5.6,12.1,9.5,25,14.5,37.4c2.7,6.9,4.8,13.9,6.3,21.1c0.2,1.1,1,1.6,1.8,2.1c6,3.4,12,6.9,18.5,9.5
			C460,237.6,462.9,238.9,463.2,242.7z M440.2,257.7c6.7-3.6,13-7.9,18.8-12.8c1.6-1.4,1.4-2.5,0-3.8c-2.1-1.9-4.6-3.2-7.2-4.1
			c-5.6-1.8-10.3-5-15.4-7.8c-1.2-0.7-2.2-1.4-2.4-2.9c-0.5-3.5-1.9-6.7-2.9-10.1c-2.8-8.9-6.1-17.5-9.1-26.3
			c-3.1-9-6.8-17.7-11.1-26.1c-2.2-4.4-3.3-9.3-6.4-13.7c-3.3,5.6-5.3,11.4-7.5,17.2c-1.5,0.3-1.6,1.6-2.1,2.7
			c-2.5,5.8-5,11.5-7.6,17.3c-4.2,9.4-8.7,18.8-12.6,28.3c-2.1,5.2-3.1,10.8-3.7,16.4c-0.2,1.6,1.1,3.3-1.1,4.5
			c-4.6,2.7-7.7,7.2-12,10.2c-2.3,1.7-1.8,3.2,0,4.8c6.2,5.6,13.2,9.9,21.1,12.7c4.3,1.6,8.3,3.2,10.7,7.6
			c3.5,6.2,7.6,12.1,11.9,17.8c0.9,1.1,1.8,2.2,2.9,3.2c1.3,1.2,2.8,1.4,4-0.1c2.9-3.6,6.7-6.4,9.4-10.1c3.5-4.7,6.2-9.9,9.1-15
			c1.4-2.5,3-4.4,5.8-5.5C435.5,261.1,438,259.6,440.2,257.7z"/>
		<path fill="#010101" d="M684,266.7c0.6,7-1.1,14-3.8,20.6c-3.7,8.8-6.8,18.1-13.8,24.9c-8.4,8.2-17.6,7.9-23.3-2.6
			c-8.1-15-7.6-30.7,0.3-45.4c3.8-7.1,8.9-13.9,14.6-20c2.8-3.1,6.4-5.1,10.3-6.4c5.7-1.9,12.5,2.5,13.9,8.7
			C683.5,253.1,684.5,259.6,684,266.7z M668.1,274.6c-0.1-3.4,0.1-6.8-0.9-10.2c-2-6.4-5.9-8.3-12.2-5.8c-6.1,2.5-9.8,7.4-11.7,13.3
			c-4.3,13.2-3.9,26.2,4,38.3c2.6,4,4.5,4.3,7.7,0.7c3.9-4.5,6.7-9.7,9.1-15.1C667,289.2,668.3,282,668.1,274.6z M654.4,315
			c4.4-0.5,8-2.5,10.9-5.9c8.5-10.2,12.5-22.5,15.4-35c2-8.7,1.6-18.1-2-27c-1-2.5-2-5.9-4.5-6.1c-2.8-0.3-6.1-0.7-9,1.3
			c-5.4,3.6-9.1,8.4-12.5,13.9c1,0.3,1.6-0.2,2.3-0.5c7.6-2.4,13.1,0.7,15.1,8.3c1.4,5.2,1,10.6,0.5,15.8
			C669.2,293.3,665.3,305.8,654.4,315z"/>
		<path fill="#010101" d="M579.6,347.9c-5.3,6.8-12.1,11.5-20.5,13.6c-7.3,1.8-14.7,2-22-0.1c-5.2-1.5-7.7-5.9-10.3-9.8
			c-5.1-7.4-8.1-15.6-7.7-24.8c1.2-10,4.4-19.3,10.1-27.6c1.2-1.7,2.2-0.9,3.1,0.3c14.7,20.2,34.3,31.3,59.4,32.3c2,0.1,4,0.1,6,0.2
			c0.9,0.1,2.4-0.4,2.4,1c0,1.6-1.4,1.7-2.7,1.7c-2.4,0-4.9,0.2-7.3-0.1c-2.3-0.3-3.3,0.6-4.4,2.4
			C583.7,340.7,581.3,344.1,579.6,347.9z M532.5,320.2c-0.4,2.5,1.3,1.4,2.2,1.2c3.5-0.7,6.4-2.7,9.2-5c-1.2-1-2.3-1.9-3.3-2.9
			c-0.9-1.3-2.2-2.1-3.5-2.9c-1-0.6-1.4-0.4-1.7,0.5C534.6,314.2,532.7,316.9,532.5,320.2z M530.4,303.2c-2.5,3.6-4.6,7.3-5.7,11.5
			c-3.4,12.9-2.9,25.2,5.2,36.4c2.2,3.1,4.4,6.5,8.4,7.7c11.1,3.3,21.4,1,30.9-5.1c0.8-0.5,1.6-1.2,1.9-2.2c2.5-6.8-2-19.6-8.5-23.2
			c-5.4-3-11.3-5.1-15.8-9.5c-0.4-0.4-0.9-1.1-1.7,0.1c-3,3.9-7.6,4.6-12,5.1c-2.8,0.3-4.1-1.8-3.3-4.7c0.6-2.3,1.3-4.7,2.3-6.9
			C533.8,308.9,534,305.9,530.4,303.2z M568.5,331c4.5,4.8,7.7,9.9,6.6,16.9c4-3.5,4.2-4.3,2.2-7.9c-0.6-1.1-1.1-2.2-1.4-3.3
			C574.6,331.7,574.7,331.7,568.5,331z M577.9,333.3c0.3,1.7,0.5,3,0.8,4.2c0.3,1.1,1,2.2,2.1,2.4c0.9,0.2,1.2-1.1,1.7-1.8
			c2.6-3.7,2.6-3.7-1.8-4.5C579.9,333.5,579.1,333.5,577.9,333.3z"/>
		<path fill="#010102" d="M544.9,233.2c-0.2,10.3-2.1,20.3-6.1,29.6c-3.3,7.7-7.3,15.4-14.1,20.8c-6.2,4.9-13.1,8.3-21.4,5.8
			c-7.4-2.2-11.3-8.2-14.6-14.5c-2.5-4.8-2.7-10.3-4.4-15.4c-1-3.3,0.9-6.6,1.3-10c1.6-13.5,7-25.6,15.7-36
			c4.8-5.7,10.9-10.3,17.6-13.8c4.5-2.3,10.6-1,14.5,2.6C540.2,209,545.2,222.2,544.9,233.2z M541.9,235.2
			c0.7-10.5-2.3-18.9-6.9-26.6c-5.2-8.8-10-9.8-18.5-4.1c-11.4,7.5-19.3,17.7-24,30.6c-4.3,11.9-5.8,23.7-2.1,36
			c2,6.6,5.8,12.1,12,15.1c8,3.9,14.8-0.2,20.6-5c9.4-7.9,12.9-19.4,16.5-30.6C541.3,245.3,542,239.7,541.9,235.2z"/>
		<path fill="#040303" d="M604.7,297.4c-6-0.4-10.7-2.7-14.3-7.1c-1.4-1.7-2.2-4.2-0.5-6.1c1.5-1.8,3.7-2.6,6.2-2.2
			c4.5,0.7,8.6,2.3,12.5,4.7c2.3,1.5,4,3,3.9,5.9c-0.2,2.9-2.5,3.6-4.8,4.1C606.6,297.1,605.5,297.3,604.7,297.4z M604.4,294.9
			c1.5,0.1,2.8-0.3,4.2-1c1.5-0.8,1.4-1.7,0.4-2.9c-3.7-4.6-9.2-5.6-14.4-7c-0.7-0.2-1.5,0.4-1.6,1.3c-0.1,1.6-0.3,3.2,1,4.7
			C596.7,293.4,600.5,294.2,604.4,294.9z"/>
		<path fill="#131313" d="M304.1,330.8c-2.3-0.8-6.1,0.2-6.7-2.1c-0.5-2.1,3.5-1.9,5.4-3.1c1.5-0.9,3.2-1.5,4.8-2.1
			c1-0.3,2.2-1.3,3.1-0.3c0.9,1-0.4,1.9-0.9,2.8c-0.4,0.8-0.9,1.5-1.2,2.3C307.8,330.3,306.4,331.3,304.1,330.8z"/>
		<path fill="#E9BF1B" d="M440.2,257.7c-2.2,1.8-4.7,3.4-7.4,4.4c-2.8,1.1-4.4,3.1-5.8,5.5c-2.9,5.1-5.6,10.3-9.1,15
			c-2.8,3.7-6.5,6.5-9.4,10.1c-1.2,1.5-2.7,1.3-4,0.1c-1-1-2-2-2.9-3.2c-4.3-5.7-8.4-11.6-11.9-17.8c-2.5-4.4-6.4-6-10.7-7.6
			c-7.9-2.8-14.9-7.1-21.1-12.7c-1.8-1.6-2.3-3.1,0-4.8c4.3-3.1,7.4-7.6,12-10.2c2.1-1.3,0.9-3,1.1-4.5c0.6-5.6,1.6-11.2,3.7-16.4
			c3.9-9.6,8.4-18.9,12.6-28.3c2.6-5.8,5.1-11.5,7.6-17.3c0.5-1.1,0.6-2.4,2.1-2.7c7.8,13.6,12.9,28.4,18.5,43
			c2.4,6.2,3.7,12.9,5.5,19.4c0.5,1.8,1.6,2.7,3.3,3.4c8.4,3.5,16.8,7.2,25.2,10.7c1.9,0.8,2.3,1.5,0.6,2.9
			C446.3,250,443.5,254.1,440.2,257.7z"/>
		<path fill="#B58116" d="M440.2,257.7c3.3-3.7,6.1-7.8,9.9-11c1.7-1.4,1.3-2.2-0.6-2.9c-8.4-3.5-16.8-7.1-25.2-10.7
			c-1.6-0.7-2.8-1.6-3.3-3.4c-1.8-6.5-3.1-13.1-5.5-19.4c-5.6-14.6-10.7-29.4-18.5-43c2.2-5.8,4.2-11.6,7.5-17.2
			c3.1,4.4,4.2,9.3,6.4,13.7c4.3,8.5,8,17.2,11.1,26.1c3,8.8,6.3,17.5,9.1,26.3c1.1,3.3,2.4,6.6,2.9,10.1c0.2,1.5,1.2,2.2,2.4,2.9
			c5.1,2.7,9.8,6,15.4,7.8c2.6,0.8,5.1,2.2,7.2,4.1c1.4,1.3,1.6,2.4,0,3.8C453.2,249.8,446.9,254.2,440.2,257.7z"/>
		<path fill="#E9BF1B" d="M668.1,274.6c0.2,7.4-1,14.6-4.1,21.3c-2.4,5.4-5.2,10.6-9.1,15.1c-3.1,3.6-5.1,3.3-7.7-0.7
			c-7.9-12.1-8.3-25.1-4-38.3c1.9-5.8,5.6-10.8,11.7-13.3c6.2-2.5,10.2-0.6,12.2,5.8C668.2,267.8,668,271.2,668.1,274.6z
			 M642.9,292.2c-0.2,3.8,0.9,5.8,3.5,7c1.8,0.8,3.4,0.6,4.9-0.7c4.3-3.7,7.3-15.1,5.5-20.5c-0.4-1.2-1.1-2.1-2.3-2
			c-2.7,0.3-5.8,0.4-7.1,3.2C645.2,283.5,642.8,287.7,642.9,292.2z"/>
		<path fill="#E29CA9" d="M530.4,303.2c3.6,2.7,3.4,5.7,1.7,9.2c-1.1,2.2-1.7,4.6-2.3,6.9c-0.8,2.8,0.5,5,3.3,4.7
			c4.4-0.5,9-1.2,12-5.1c0.9-1.1,1.3-0.5,1.7-0.1c4.5,4.4,10.4,6.5,15.8,9.5c6.5,3.6,11,16.4,8.5,23.2c-0.4,1-1.1,1.6-1.9,2.2
			c-9.6,6.2-19.8,8.5-30.9,5.1c-4-1.2-6.1-4.6-8.4-7.7c-8.1-11.2-8.6-23.5-5.2-36.4C525.9,310.5,527.9,306.8,530.4,303.2z"/>
		<path fill="#833D12" d="M568.5,331c6.2,0.7,6.1,0.7,7.4,5.7c0.3,1.2,0.9,2.3,1.4,3.3c2,3.7,1.8,4.4-2.2,7.9
			C576.2,340.8,573,335.8,568.5,331z"/>
		<path fill="#C2CDC7" d="M540.6,313.4c-3.1,1.7-5.3,4.6-8.1,6.7c0.2-3.3,2-6,2.9-9c0.3-0.9,0.7-1.1,1.7-0.5
			C538.5,311.4,539.8,312.1,540.6,313.4z"/>
		<path fill="#C9D4CF" d="M577.9,333.3c1.2,0.1,2,0.2,2.7,0.3c4.4,0.8,4.5,0.8,1.8,4.5c-0.5,0.7-0.8,2-1.7,1.8
			c-1.1-0.2-1.8-1.3-2.1-2.4C578.4,336.3,578.2,335,577.9,333.3z"/>
		<path fill="#B11F23" d="M604.4,294.9c-3.9-0.7-7.7-1.5-10.5-4.9c-1.2-1.5-1.1-3-1-4.7c0.1-0.9,0.9-1.5,1.6-1.3
			c5.2,1.4,10.7,2.4,14.4,7c0.9,1.2,1.1,2.1-0.4,2.9C607.3,294.6,606,295,604.4,294.9z"/>
		<path fill="#050401" d="M642.9,292.2c0-4.5,2.3-8.7,4.4-13c1.4-2.8,4.4-2.9,7.1-3.2c1.2-0.1,1.9,0.8,2.3,2
			c1.9,5.4-1.2,16.9-5.5,20.5c-1.5,1.3-3.1,1.5-4.9,0.7C643.8,298,642.7,296,642.9,292.2z M646.2,292.2c0,0.4,0,0.9,0,1.3
			c0,1.5,0.2,3.1,1.7,3.6c1.3,0.4,2.1-1.1,2.8-2c3.1-3.8,3.4-8.5,3.9-13.1c0.1-1.3,0.2-3.3-1.3-3.6c-1.5-0.3-3.1,0.6-4,2.3
			C647.5,284.4,646.4,288.1,646.2,292.2z"/>
		<path fill="#020101" d="M530.2,242.4c-0.3,10.4-1.5,21.3-8.3,30.5c-2.6,3.5-5.8,6.6-9.4,9.1c-6.6,4.7-14.2,2.1-17.2-5.5
			c-4-10.2-2.4-20.1,1.3-30c2.5-6.7,7.4-11.6,12-16.7c2.6-2.9,6.3-4.1,10-4.8c4.4-0.9,8.9,2.8,10.3,7.8
			C529.8,235.8,530,238.8,530.2,242.4z M527.2,241.5c-0.2-1.5-0.4-3.8-0.7-6.1c-0.2-1.1-0.5-2.2-0.8-3.2c-1.7-4.6-4.7-5.7-9.1-3.9
			c-7.6,3.1-11,10.2-15.2,16.4c-3.4,5.1-4.4,11.3-5,17.4c-0.6,5.5,0.5,10.8,3,15.7c2.1,4,7.2,5.3,10.8,2.5
			c6.2-5,11.7-10.8,14.2-18.6C526.3,255.3,527.1,248.8,527.2,241.5z"/>
		<path fill="#E7BD1B" d="M646.2,292.2c0.1-4,1.3-7.8,3.1-11.4c0.9-1.7,2.5-2.6,4-2.3c1.5,0.3,1.5,2.3,1.3,3.6
			c-0.5,4.6-0.8,9.3-3.9,13.1c-0.7,0.9-1.5,2.4-2.8,2c-1.5-0.5-1.8-2.1-1.7-3.6C646.3,293.1,646.2,292.6,646.2,292.2z"/>
		<path fill="#E9BF1B" d="M527.2,241.5c-0.1,7.3-0.9,13.8-2.9,20c-2.5,7.8-7.9,13.6-14.2,18.6c-3.5,2.8-8.6,1.6-10.8-2.5
			c-2.6-4.9-3.6-10.2-3-15.7c0.6-6.1,1.6-12.2,5-17.4c4.2-6.2,7.6-13.2,15.2-16.4c4.4-1.8,7.4-0.7,9.1,3.9c0.4,1,0.7,2.1,0.8,3.2
			C526.8,237.7,527,240,527.2,241.5z M516.6,253.1c-0.3-1.5-0.4-3.4-0.9-5.2c-0.6-2.2-2.7-2.8-4.7-1.6c-5.9,3.6-7.4,9.2-7.1,15.6
			c0.1,2.2,1.2,4.1,3.4,4.9c2.4,0.8,4.3-0.4,5.8-2.2C515.9,261.5,516.2,257.5,516.6,253.1z"/>
		<path fill="#040401" d="M516.6,253.1c-0.5,4.3-0.7,8.3-3.5,11.5c-1.5,1.8-3.4,3-5.8,2.2c-2.2-0.7-3.3-2.6-3.4-4.9
			c-0.3-6.4,1.2-12,7.1-15.6c2-1.2,4.1-0.6,4.7,1.6C516.2,249.8,516.4,251.7,516.6,253.1z M513,248.2c-4.4,2.9-7.2,9.1-6.3,13.6
			c0.2,1.1,0.4,2.7,1.8,3c1.3,0.3,2.2-0.9,2.8-2C513.9,258.3,514.5,253.5,513,248.2z"/>
		<path fill="#E5BC1A" d="M513,248.2c1.5,5.3,0.9,10.1-1.8,14.6c-0.6,1-1.5,2.2-2.8,2c-1.3-0.3-1.5-1.8-1.8-3
			C505.7,257.3,508.6,251.1,513,248.2z"/>
	</g>
</g>
<path fill="none" enable-background="new    " d="z"/>
<path fill="none" d="M418,207"/>
</svg>
