<?xml version="1.0" standalone="no"?>
<!DOCTYPE svg PUBLIC "-//W3C//DTD SVG 20010904//EN"
 "http://www.w3.org/TR/2001/REC-SVG-20010904/DTD/svg10.dtd">
<svg version="1.0" xmlns="http://www.w3.org/2000/svg"
 width="600.000000pt" height="400.000000pt" viewBox="0 0 600.000000 400.000000"
 preserveAspectRatio="xMidYMid meet">
<metadata>
Created by potrace 1.11, written by Peter Selinger 2001-2013
</metadata>
<g transform="translate(0.000000,400.000000) scale(0.100000,-0.100000)"
fill="#000000" stroke="none">
<path d="M2405 3957 c-112 -54 -177 -116 -267 -252 -99 -150 -162 -285 -261
-560 -144 -396 -123 -821 54 -1108 29 -47 29 -48 12 -72 -10 -13 -20 -24 -23
-24 -3 0 -21 34 -40 77 -33 73 -112 172 -137 172 -18 0 -41 -71 -49 -148 -3
-40 -9 -72 -11 -72 -19 0 -140 123 -221 224 -88 110 -242 356 -242 386 0 8 10
11 29 7 75 -15 208 -19 231 -7 22 12 23 16 17 99 -6 94 -27 169 -82 286 -19
41 -35 78 -35 83 0 5 26 51 57 103 31 52 75 137 98 189 57 129 119 316 111
335 -3 9 -27 26 -53 38 -41 18 -66 21 -163 21 -123 0 -170 -10 -313 -66 l-77
-31 -23 20 c-100 92 -397 219 -599 256 -100 19 -103 16 -94 -97 8 -111 43
-346 62 -421 9 -33 35 -100 59 -148 l43 -88 -70 -92 c-38 -51 -82 -117 -98
-147 -40 -79 -90 -235 -90 -280 0 -65 33 -74 347 -99 108 -9 130 -8 200 10 43
11 84 21 91 22 9 1 32 -50 66 -143 111 -306 244 -507 442 -671 18 -14 40 -41
49 -59 10 -19 39 -57 66 -85 l49 -52 -86 -34 c-103 -41 -142 -72 -122 -96 20
-25 73 -43 124 -43 40 0 45 -2 38 -17 -4 -10 -12 -50 -17 -89 -10 -69 -11 -71
-45 -84 -45 -16 -114 -80 -146 -134 -75 -127 -101 -302 -58 -383 26 -50 103
-104 188 -133 114 -38 198 -20 290 64 l57 52 54 -18 c87 -30 157 -32 258 -10
105 24 157 44 183 72 17 18 22 19 83 7 l64 -13 39 -78 c73 -148 200 -246 320
-248 49 -1 55 -4 72 -32 110 -190 371 -345 579 -346 112 0 235 81 343 228 47
63 122 207 122 233 0 6 8 33 17 60 l18 49 130 -129 c121 -119 338 -288 393
-305 11 -4 47 -27 78 -52 62 -47 159 -84 223 -84 57 0 189 37 240 67 150 87
290 309 291 458 0 119 -60 171 -164 141 -75 -22 -90 -20 -178 18 -128 56 -233
124 -326 209 -48 45 -109 101 -136 124 -32 28 -44 44 -35 47 8 3 50 15 94 26
44 12 108 31 142 42 l63 20 49 -54 c32 -35 64 -59 90 -68 59 -19 71 -10 71 55
0 30 2 55 5 55 3 0 26 -13 53 -29 26 -17 89 -46 139 -65 50 -19 100 -40 111
-47 33 -21 52 -5 52 43 0 99 -49 217 -122 294 l-48 51 28 25 c20 19 43 27 85
32 80 9 153 36 250 93 167 98 242 179 338 369 131 259 187 540 160 810 -24
232 -58 316 -170 417 -107 95 -365 144 -470 89 -95 -50 -233 -199 -292 -313
-22 -45 -25 -46 -58 -18 l-24 19 40 48 c86 102 123 223 123 406 0 119 -16 174
-57 202 -26 16 -26 16 -59 -22 -18 -22 -33 -42 -34 -45 0 -4 -6 -9 -13 -12
-10 -4 -13 17 -13 87 0 78 -5 103 -34 180 -34 93 -87 166 -120 166 -10 0 -25
-10 -33 -22 -54 -82 -232 -211 -367 -269 -127 -54 -208 -69 -420 -79 -309 -15
-430 -37 -598 -105 -48 -19 -89 -32 -92 -27 -4 4 -14 28 -24 54 -29 78 -94
168 -186 259 -113 111 -196 170 -312 221 -84 37 -102 42 -188 45 -95 3 -95 3
-185 -40z m296 -8 c30 -11 70 -28 89 -36 112 -48 313 -222 394 -341 27 -38 61
-110 82 -167 44 -125 92 -346 100 -471 5 -62 11 -93 18 -91 33 11 13 207 -46
442 -11 44 -21 83 -22 88 -2 13 189 89 254 101 14 2 36 7 50 10 64 15 99 18
297 26 116 4 215 10 220 13 4 3 31 8 58 11 175 20 451 164 566 296 49 56 53
59 70 44 24 -22 63 -106 89 -194 21 -69 21 -81 10 -186 -6 -61 -18 -136 -25
-165 -18 -64 -18 -79 -5 -79 13 0 28 36 49 121 13 54 25 76 68 123 l52 57 16
-31 c38 -74 38 -218 -2 -369 -19 -74 -43 -120 -95 -180 l-37 -43 -30 18 c-30
18 -49 15 -36 -6 3 -6 38 -31 76 -56 71 -47 122 -101 201 -215 125 -177 159
-266 193 -501 21 -146 20 -187 -3 -298 -39 -182 -105 -313 -212 -420 -176
-177 -326 -254 -665 -339 -136 -35 -265 -43 -265 -16 0 19 -16 19 -24 0 -10
-26 -244 -20 -420 10 -80 14 -167 32 -193 41 -56 18 -154 71 -235 126 -31 21
-59 38 -62 38 -3 0 -22 11 -42 25 l-36 25 -41 -33 c-79 -62 -268 -159 -283
-145 -2 3 32 51 76 108 44 56 80 108 80 115 0 21 -19 22 -105 8 -106 -17 -225
-16 -339 2 -100 16 -238 56 -262 76 -22 18 3 39 114 97 92 47 100 49 158 45
53 -5 72 0 165 36 117 46 226 106 241 134 8 17 7 18 -14 12 -12 -4 -34 -15
-48 -25 -40 -28 -125 -69 -199 -95 -122 -44 -239 -30 -418 51 -43 20 -82 42
-86 50 -4 8 -16 14 -27 14 -29 0 -144 104 -205 186 -75 99 -119 190 -151 309
-24 88 -27 122 -30 280 -4 288 25 424 169 775 105 257 224 438 350 534 98 75
248 98 358 55z m-2251 -69 c52 -11 179 -53 302 -99 31 -12 73 -33 93 -46 20
-14 38 -25 41 -25 4 0 90 -58 139 -94 8 -6 43 3 101 27 49 20 122 43 163 53
142 32 345 4 326 -44 -4 -9 -20 -57 -36 -107 -34 -102 -31 -96 -93 -228 -25
-53 -69 -134 -96 -178 -28 -44 -50 -84 -50 -88 0 -5 20 -50 44 -102 54 -118
74 -185 78 -274 l3 -70 -95 2 c-124 1 -166 16 -194 68 -31 56 -97 227 -146
375 -47 145 -62 163 -124 154 -59 -9 -82 -27 -100 -80 -21 -62 -20 -129 5
-234 24 -102 49 -237 49 -266 0 -14 -8 -24 -22 -27 -13 -3 -51 -12 -85 -21
-49 -12 -79 -14 -140 -6 -43 5 -123 12 -178 15 -139 9 -175 19 -175 50 0 33
63 221 93 281 14 27 46 76 71 109 25 33 58 77 72 98 l27 37 -40 83 c-62 126
-76 174 -94 307 -4 36 -15 110 -23 165 -9 55 -16 119 -16 143 0 39 2 42 23 38
12 -3 47 -10 77 -16z m5170 -686 c96 -24 149 -52 203 -107 69 -71 106 -153
121 -267 18 -145 21 -184 18 -270 -4 -128 -36 -311 -77 -435 -25 -76 -124
-285 -135 -285 -3 0 -17 17 -33 38 -15 20 -41 46 -57 57 -30 20 -38 43 -21 60
5 6 21 48 36 95 15 47 33 104 41 126 24 77 54 294 54 398 0 117 -10 138 -53
114 -36 -20 -106 -68 -171 -118 -32 -25 -72 -55 -88 -67 -16 -11 -49 -42 -72
-68 l-42 -47 -12 28 c-55 120 -104 197 -214 334 -27 33 -48 65 -48 71 0 49
164 254 251 315 81 56 155 63 299 28z m116 -529 c7 -17 -11 -231 -27 -325 -11
-61 -66 -245 -106 -354 -18 -47 -18 -49 1 -60 29 -16 106 -87 106 -97 0 -17
-46 -32 -141 -44 -89 -12 -102 -16 -131 -45 -29 -30 -101 -80 -113 -80 -3 0
-2 8 4 18 19 36 51 146 67 234 17 95 13 193 -17 348 -25 134 -31 116 67 209
48 46 122 108 166 138 43 30 80 59 83 64 9 14 35 11 41 -6z m-35 -914 c-99
-125 -301 -254 -420 -268 -28 -3 -51 -3 -51 -1 0 3 15 31 34 62 26 43 51 68
107 105 41 26 85 60 98 75 17 17 35 26 56 26 46 0 146 20 175 35 36 19 36 11
1 -34z m-3400 -34 c41 -19 100 -42 133 -52 l58 -18 -30 -16 c-114 -59 -146
-79 -170 -104 l-27 -29 35 -29 c19 -16 38 -29 44 -29 5 0 40 -9 77 -20 l69
-21 0 -59 c0 -80 26 -176 135 -489 20 -59 32 -108 27 -113 -25 -25 -322 -1
-414 34 -34 13 -89 121 -112 221 -21 92 -22 390 -1 479 21 91 88 278 99 278 2
0 37 -15 77 -33z m367 -348 c90 -10 131 -10 196 -1 126 18 124 21 61 -58 -30
-38 -65 -85 -77 -105 -19 -33 -19 -38 -5 -52 14 -14 22 -13 89 11 40 15 113
52 161 81 48 30 94 52 101 49 17 -6 236 -250 236 -262 0 -5 -26 -12 -57 -15
-147 -16 -319 -101 -415 -206 -102 -112 -132 -168 -144 -272 l-7 -64 -18 40
c-47 107 -77 203 -66 214 8 8 7 11 -4 11 -9 0 -21 15 -27 33 -5 17 -45 131
-87 252 -58 167 -78 238 -82 294 -6 69 -5 73 13 68 10 -3 70 -11 132 -18z
m2473 -38 c59 -49 129 -199 129 -279 l0 -33 -29 15 c-16 9 -57 26 -93 39 -96
37 -159 71 -202 111 -22 20 -38 37 -35 40 2 2 22 15 44 28 22 14 63 44 90 66
28 23 52 41 55 42 3 0 21 -13 41 -29z m-3627 -426 c35 -78 85 -136 158 -188
l60 -42 -44 -39 c-23 -21 -61 -47 -83 -56 -78 -34 -142 -33 -79 1 33 17 76 68
68 80 -3 5 -24 -6 -47 -25 -23 -18 -52 -38 -64 -45 -30 -15 -85 -14 -109 3
-18 14 -18 15 11 26 35 13 95 68 95 87 0 21 -10 16 -57 -28 -40 -36 -48 -40
-90 -37 -66 4 -86 35 -92 135 -7 142 70 309 175 381 l49 34 11 -114 c8 -86 17
-128 38 -173z m3021 10 c81 -75 167 -147 191 -161 24 -14 42 -30 39 -34 -3 -5
-26 -23 -52 -40 -166 -112 -292 -282 -309 -417 -4 -32 -11 -53 -19 -53 -7 0
-34 17 -61 38 -27 21 -56 41 -64 44 -26 10 -300 268 -315 298 -11 20 -13 46
-8 94 7 75 -11 124 -54 147 -13 7 -23 15 -23 18 0 3 28 21 63 38 34 18 104 60
154 92 92 60 94 60 175 64 46 1 95 4 109 5 21 2 56 -25 174 -133z m-927 -54
c2 -6 12 -11 22 -11 22 0 85 -52 102 -84 6 -11 14 -44 17 -74 7 -60 24 -74 29
-23 6 58 -8 100 -44 140 -19 21 -34 41 -34 44 0 10 69 0 84 -12 8 -7 19 -10
24 -7 15 9 81 -43 88 -70 16 -63 -16 -224 -69 -354 -36 -89 -62 -129 -155
-236 -115 -132 -218 -168 -372 -130 -212 54 -279 116 -309 289 -11 63 -10 73
15 155 35 115 66 174 122 234 57 62 86 76 138 73 63 -3 96 -34 144 -130 38
-77 60 -99 60 -58 0 29 -73 154 -107 182 -41 34 -40 35 66 68 79 24 172 26
179 4z m-892 -259 c18 -52 43 -116 57 -143 l24 -49 -44 0 c-62 0 -129 38 -195
109 -45 48 -108 150 -108 174 0 2 53 4 117 3 l117 -1 32 -93z m2494 30 c19
-16 22 -27 21 -96 -1 -66 -6 -91 -34 -155 -63 -146 -146 -244 -251 -298 -103
-52 -229 -68 -306 -37 -44 18 -43 14 -15 116 30 103 155 283 198 283 10 0 30
17 46 40 37 54 99 96 153 102 37 4 49 1 76 -22 17 -14 36 -43 41 -63 11 -38 5
-109 -10 -118 -11 -6 -12 -44 -1 -44 19 0 54 72 54 109 -1 47 -32 111 -67 139
-31 25 -32 40 -2 52 36 14 73 11 97 -8z"/>
<path d="M2441 3229 c-17 -23 -31 -46 -31 -51 0 -5 -10 -30 -21 -56 -12 -26
-33 -72 -46 -102 -14 -30 -43 -93 -65 -140 -123 -260 -154 -346 -165 -452 -4
-43 -10 -51 -79 -113 -41 -36 -74 -71 -74 -78 0 -6 22 -32 49 -58 44 -42 133
-93 232 -132 28 -12 50 -37 111 -129 83 -125 125 -166 156 -149 32 17 149 158
193 232 23 39 54 78 68 86 139 85 237 153 269 187 46 48 33 63 -110 135 -117
59 -124 64 -136 101 -6 22 -12 45 -12 51 0 17 -63 193 -125 349 -85 212 -152
355 -169 358 -8 2 -28 -15 -45 -39z m104 -155 c31 -70 77 -182 102 -248 24
-67 53 -143 64 -171 10 -27 26 -81 35 -120 9 -38 21 -75 26 -81 5 -7 60 -37
122 -68 62 -31 119 -62 125 -70 15 -18 -33 -58 -164 -139 -127 -78 -140 -90
-180 -161 -37 -66 -137 -191 -168 -210 -15 -9 -24 -4 -54 29 -19 22 -62 82
-94 133 -47 73 -67 96 -96 108 -147 62 -263 137 -263 169 0 7 32 42 71 78 67
60 72 67 76 113 2 27 11 72 19 101 15 51 190 449 233 528 11 22 21 43 21 46 0
4 12 33 26 65 30 68 22 76 99 -102z"/>
<path d="M3592 2723 c-77 -42 -133 -93 -184 -169 -80 -120 -110 -196 -128
-325 -11 -74 -10 -94 5 -155 36 -146 132 -244 238 -244 41 0 121 39 164 80
111 104 187 307 187 495 1 189 -93 345 -207 345 -13 0 -47 -12 -75 -27z m161
-41 c72 -73 112 -248 87 -374 -35 -182 -108 -326 -198 -395 -86 -65 -160 -68
-230 -8 -160 137 -130 445 67 689 50 62 148 125 196 125 35 1 47 -5 78 -37z"/>
<path d="M3564 2466 c-139 -65 -240 -310 -191 -467 15 -52 76 -109 116 -109
30 0 88 38 132 86 67 72 108 199 109 332 0 83 -16 129 -55 160 -35 28 -48 27
-111 -2z m109 -38 c17 -23 21 -42 20 -120 -1 -166 -42 -269 -138 -349 -52 -43
-69 -47 -103 -23 -72 50 -73 236 -1 359 65 111 128 168 178 163 13 -2 33 -15
44 -30z"/>
<path d="M3512 2252 c-17 -16 -34 -42 -37 -58 -4 -16 -9 -35 -11 -43 -3 -8 0
-29 7 -48 9 -29 15 -33 45 -33 28 0 38 6 54 32 39 64 35 170 -7 176 -11 2 -33
-9 -51 -26z"/>
<path d="M5072 2343 c-28 -14 -57 -44 -154 -162 -30 -37 -79 -130 -93 -176
-23 -79 -20 -221 6 -297 74 -217 230 -200 349 37 83 163 107 316 75 482 -12
62 -20 83 -43 104 -34 31 -92 36 -140 12z m138 -68 c22 -45 24 -61 24 -175 -1
-142 -13 -196 -75 -327 -53 -112 -103 -168 -169 -188 -22 -7 -19 -2 17 34 78
78 140 274 131 412 -5 79 -23 117 -67 143 -28 16 -40 18 -72 9 -22 -6 -39 -7
-39 -4 0 13 83 106 111 126 19 12 46 20 72 20 40 0 43 -2 67 -50z m-140 -133
c29 -23 40 -87 34 -187 -8 -115 -49 -229 -111 -311 -46 -62 -82 -46 -124 56
-19 45 -23 73 -23 160 0 131 27 214 81 256 58 44 109 54 143 26z"/>
<path d="M4933 1970 c-31 -13 -52 -48 -65 -111 -13 -65 -6 -105 22 -114 50
-16 90 30 109 126 19 91 -4 124 -66 99z"/>
<path d="M4349 1906 c-37 -18 -36 -51 3 -90 60 -60 161 -70 194 -20 13 18 12
24 -7 48 -41 52 -143 86 -190 62z"/>
<path d="M3692 1698 c-47 -78 -63 -133 -69 -229 -5 -69 -2 -96 13 -135 70
-184 170 -252 331 -224 143 24 219 78 298 213 l39 67 63 0 c49 0 63 3 63 15 0
12 -16 15 -82 15 -152 1 -306 55 -423 149 -27 22 -66 53 -86 68 -20 15 -49 47
-64 70 -15 24 -32 43 -39 43 -6 0 -26 -24 -44 -52z m68 -39 c0 -10 -9 -43 -21
-74 -19 -52 -20 -58 -4 -74 13 -16 23 -17 57 -9 45 10 80 26 89 41 4 5 25 -3
50 -20 24 -17 64 -40 89 -53 86 -43 138 -132 126 -214 -8 -50 -23 -64 -108
-96 -69 -26 -197 -28 -239 -3 -66 39 -139 181 -141 273 -2 95 27 213 64 257
14 17 38 -1 38 -28z"/>
</g>
</svg>
